<?xml version="1.0" encoding="UTF-8"?>
<!DOCTYPE svg PUBLIC "-//W3C//DTD SVG 1.0//EN" "http://www.w3.org/TR/2001/REC-SVG-20010904/DTD/svg10.dtd">
<!-- Creator: CorelDRAW -->
<svg xmlns="http://www.w3.org/2000/svg" xml:space="preserve" width="164px" height="145px" version="1.0" style="shape-rendering:geometricPrecision; text-rendering:geometricPrecision; image-rendering:optimizeQuality; fill-rule:evenodd; clip-rule:evenodd"
viewBox="0 0 11.301 10.01"
 xmlns:xlink="http://www.w3.org/1999/xlink"
 xmlns:xodm="http://www.corel.com/coreldraw/odm/2003">
 <defs>
  <style type="text/css">
   <![CDATA[
    .fil0 {fill:none}
    .fil2 {fill:#E25013}
    .fil1 {fill:url(#id0)}
   ]]>
  </style>
  <linearGradient id="id0" gradientUnits="userSpaceOnUse" x1="5.651" y1="7.516" x2="5.651" y2="2.493">
   <stop offset="0" style="stop-opacity:1; stop-color:#9E2E09"/>
   <stop offset="1" style="stop-opacity:1; stop-color:#C83906"/>
  </linearGradient>
 </defs>
 <g id="Layer_x0020_1">
  <metadata id="CorelCorpID_0Corel-Layer"/>
  <rect class="fil0" width="11.301" height="10.01"/>
  <g id="_2628765716720">
   <path class="fil1" d="M5.533 3.906c0.266,-0.038 0.486,0.053 0.654,0.18 0.116,0.089 0.091,0.075 0.167,0.179l0.025 0.034c0.326,0.485 0.04,1.219 -0.601,1.316 -0.508,0.077 -0.918,-0.293 -0.984,-0.724 -0.079,-0.523 0.301,-0.921 0.739,-0.985zm-2.047 0.674c0,0.453 0.074,0.735 0.287,1.088 0.079,0.131 0.158,0.237 0.264,0.342l1.213 1.234c0.356,0.356 0.432,0.367 0.789,0.01l0.843 -0.837c0.232,-0.315 0.425,-0.385 0.637,-0.736 0.503,-0.837 0.343,-1.873 -0.318,-2.531 -0.195,-0.195 -0.332,-0.305 -0.594,-0.437 -0.575,-0.289 -1.326,-0.294 -1.901,-0.007 -0.429,0.215 -0.83,0.59 -1.023,1.039 -0.096,0.223 -0.197,0.527 -0.197,0.835z"/>
   <path class="fil2" d="M6.764 6.533l-0.727 0.722c-0.357,0.357 -0.432,0.343 -0.788,-0.013l-0.712 -0.722c0.162,-0.458 0.598,-0.785 1.112,-0.785 0.518,0 0.959,0.333 1.115,0.798z"/>
  </g>
 </g>
</svg>
