<?xml version="1.0" encoding="UTF-8"?>
<!DOCTYPE svg PUBLIC "-//W3C//DTD SVG 1.0//EN" "http://www.w3.org/TR/2001/REC-SVG-20010904/DTD/svg10.dtd">
<!-- Creator: CorelDRAW -->
<svg xmlns="http://www.w3.org/2000/svg" xml:space="preserve" width="164px" height="145px" version="1.0" style="shape-rendering:geometricPrecision; text-rendering:geometricPrecision; image-rendering:optimizeQuality; fill-rule:evenodd; clip-rule:evenodd"
viewBox="0 0 10.014 8.869"
 xmlns:xlink="http://www.w3.org/1999/xlink"
 xmlns:xodm="http://www.corel.com/coreldraw/odm/2003">
 <defs>
  <style type="text/css">
   <![CDATA[
    .fil0 {fill:none}
    .fil1 {fill:#4C66EB}
   ]]>
  </style>
 </defs>
 <g id="Layer_x0020_1">
  <metadata id="CorelCorpID_0Corel-Layer"/>
  <rect class="fil0" width="10.014" height="8.869"/>
  <path class="fil1" d="M5.459 4.322c0.062,-0.051 0.188,0.013 0.122,0.093 -0.024,0.028 -0.069,0.034 -0.099,0.017 -0.046,-0.028 -0.034,-0.059 -0.023,-0.11zm0.234 -0.3c0.134,0.043 0.163,0.092 0.247,0.164 0.05,0.043 0.319,0.377 0.309,0.492 -0.012,0.145 -0.418,0.165 -0.511,-0.091 -0.048,-0.132 0.049,-0.231 -0.046,-0.335 -0.108,-0.12 -0.181,-0.006 -0.276,-0.122 0.014,-0.124 0.149,-0.15 0.277,-0.108zm-2.115 1.581c-0.329,-0.273 -0.555,-0.684 -0.676,-1.124 -0.029,-0.106 -0.09,-0.42 -0.07,-0.529 0.044,-0.248 1.139,-0.135 1.853,0.637 0.048,0.052 0.081,0.105 0.129,0.161 0.232,0.27 0.445,0.708 0.785,1.03 0.056,0.054 0.116,0.105 0.163,0.143 0.054,0.044 0.108,0.08 0.159,0.129 -0.23,0.027 -0.545,0.001 -0.718,-0.15 -0.064,-0.056 -0.09,-0.073 -0.154,-0.12 -0.163,-0.118 -0.527,-0.431 -0.735,-0.372 -0.079,0.198 0.165,0.352 0.09,0.453 -0.094,0.125 -0.34,0.051 -0.468,-0.007 -0.117,-0.053 -0.268,-0.175 -0.358,-0.251zm3.147 -1.929c0.001,0.031 -0.026,0.295 -0.125,0.281 -0.27,-0.036 -0.754,-0.683 -1.168,-0.954 -0.078,-0.051 -0.165,-0.15 -0.123,-0.276 0.055,-0.165 0.136,-0.128 0.204,-0.213 -0.07,-0.162 -0.53,-0.033 -0.66,0.016 -0.457,0.172 -0.282,0.066 -0.671,0.066 -0.445,0 -0.715,0.054 -1.059,0.293 -0.047,0.032 -0.075,0.06 -0.118,0.096 -0.818,0.702 -0.69,2.131 0.102,2.877l0.227 0.201c0.372,0.303 0.8,0.477 1.321,0.477 0.997,0 1.233,-0.397 1.351,-0.43 0.031,-0.009 0.077,0.017 0.131,0.033 0.092,0.027 0.231,0.049 0.333,0.053 0.171,0.008 0.602,-0.005 0.506,-0.229 -0.028,-0.051 0.006,-0.019 -0.061,-0.053 -0.137,-0.071 -0.372,-0.147 -0.472,-0.198 0.019,-0.051 0.038,-0.058 0.08,-0.098 0.152,-0.144 0.395,-0.501 0.485,-0.704 0.065,-0.144 0.143,-0.354 0.174,-0.513 0.088,-0.443 0.035,-0.292 0.069,-0.603 0.156,-0.064 0.235,0.001 0.531,-0.201 0.371,-0.254 0.511,-0.969 0.279,-0.913 -0.124,0.03 -0.104,0.239 -0.477,0.239 -0.237,0 -0.33,0.09 -0.474,0.193 -0.028,-0.247 -0.216,-0.316 -0.354,-0.384 -0.286,-0.142 -0.201,-0.422 -0.332,-0.397 -0.156,0.03 -0.285,0.744 0.046,1.111 0.043,0.048 0.065,0.076 0.121,0.123 0.052,0.044 0.096,0.068 0.134,0.107z"/>
 </g>
</svg>
