<?xml version="1.0" encoding="UTF-8"?>
<!DOCTYPE svg PUBLIC "-//W3C//DTD SVG 1.1//EN" "http://www.w3.org/Graphics/SVG/1.1/DTD/svg11.dtd">
<!-- Creator: CorelDRAW -->
<svg xmlns="http://www.w3.org/2000/svg" xml:space="preserve" width="164px" height="146px" version="1.1" style="shape-rendering:geometricPrecision; text-rendering:geometricPrecision; image-rendering:optimizeQuality; fill-rule:evenodd; clip-rule:evenodd"
viewBox="0 0 125.756 111.402"
 xmlns:xlink="http://www.w3.org/1999/xlink"
 xmlns:xodm="http://www.corel.com/coreldraw/odm/2003">
 <defs>
  <style type="text/css">
   <![CDATA[
    .fil0 {fill:none}
    .fil2 {fill:white}
    .fil1 {fill:#8096D6;fill-rule:nonzero}
   ]]>
  </style>
 </defs>
 <g id="Layer_x0020_1">
  <metadata id="CorelCorpID_0Corel-Layer"/>
  <rect class="fil0" width="125.756" height="111.402"/>
  <g id="_2659978642864">
   <path class="fil1" d="M42.886 30.55l39.983 0c2.849,0 5.159,2.31 5.159,5.159l0.001 39.983c-0.001,2.849 -2.311,5.159 -5.16,5.159l-39.983 0.001c-2.848,-0.001 -5.158,-2.311 -5.158,-5.16l-0.001 -39.983c0.001,-2.849 2.311,-5.159 5.16,-5.159z"/>
   <path class="fil2" d="M74.254 62.782c2.322,0 4.191,1.883 4.191,4.192 0,2.309 -1.883,4.192 -4.191,4.192 -2.309,0 -4.192,-1.883 -4.192,-4.192 0,-2.309 1.883,-4.192 4.192,-4.192zm-22.765 -22.559c2.322,0 4.192,1.883 4.192,4.192 0,2.309 -1.884,4.192 -4.192,4.192 -2.309,0 -4.192,-1.883 -4.192,-4.192 0,-2.309 1.883,-4.192 4.192,-4.192zm0 22.559c2.322,0 4.192,1.883 4.192,4.192 0,2.309 -1.884,4.192 -4.192,4.192 -2.309,0 -4.192,-1.883 -4.192,-4.192 0,-2.309 1.883,-4.192 4.192,-4.192zm4.205 -7.043c0,2.271 -1.883,4.154 -4.205,4.154 -2.321,0 -4.192,-1.883 -4.192,-4.192 0,-2.309 1.884,-4.192 4.192,-4.192 3.986,0 7.21,-3.225 7.198,-7.145 0,-2.258 1.869,-4.141 4.179,-4.141 2.309,0 4.191,1.883 4.191,4.192 0,2.309 -1.883,4.192 -4.179,4.179 -3.959,-0.012 -7.184,3.212 -7.197,7.146l0.013 -0.001zm11.376 11.286c0,2.27 -1.883,4.153 -4.205,4.153 -2.321,0 -4.192,-1.883 -4.192,-4.192 0,-2.308 1.883,-4.191 4.192,-4.191 3.986,0 7.21,-3.225 7.197,-7.146 0,-2.257 1.87,-4.14 4.18,-4.14 2.309,0 4.191,1.883 4.191,4.192 0,2.309 -1.883,4.192 -4.179,4.179 -3.96,-0.013 -7.184,3.212 -7.197,7.146l0 -0.001 0.013 0zm0 -11.286c0,2.271 -1.883,4.154 -4.205,4.154 -2.321,0 -4.192,-1.883 -4.192,-4.192 0,-2.309 1.883,-4.192 4.192,-4.192 3.986,0 7.21,-3.225 7.197,-7.145 0,-2.258 1.87,-4.141 4.18,-4.141 2.309,0 4.191,1.883 4.191,4.192 0,2.309 -1.883,4.192 -4.179,4.179 -3.96,-0.012 -7.184,3.212 -7.197,7.146l0 -0.001 0.013 0z"/>
  </g>
 </g>
</svg>
