<?xml version="1.0" encoding="UTF-8"?>
<!DOCTYPE svg PUBLIC "-//W3C//DTD SVG 1.1//EN" "http://www.w3.org/Graphics/SVG/1.1/DTD/svg11.dtd">
<!-- Creator: CorelDRAW -->
<svg xmlns="http://www.w3.org/2000/svg" xml:space="preserve" width="164px" height="145px" version="1.1" style="shape-rendering:geometricPrecision; text-rendering:geometricPrecision; image-rendering:optimizeQuality; fill-rule:evenodd; clip-rule:evenodd"
viewBox="0 0 19.651 17.405"
 xmlns:xlink="http://www.w3.org/1999/xlink"
 xmlns:xodm="http://www.corel.com/coreldraw/odm/2003"
 enable-background="new 0 0 250 250">
 <defs>
  <style type="text/css">
   <![CDATA[
    .fil0 {fill:none}
    .fil1 {fill:#FEE200;fill-rule:nonzero}
    .fil3 {fill:url(#id0);fill-rule:nonzero}
    .fil7 {fill:url(#id1);fill-rule:nonzero}
    .fil5 {fill:url(#id2);fill-rule:nonzero}
    .fil6 {fill:url(#id3);fill-rule:nonzero}
    .fil4 {fill:url(#id4);fill-rule:nonzero}
    .fil2 {fill:url(#id5);fill-rule:nonzero}
   ]]>
  </style>
  <linearGradient id="id0" gradientUnits="userSpaceOnUse" x1="10.775" y1="8.488" x2="10.775" y2="6.957">
   <stop offset="0" style="stop-opacity:1; stop-color:#F08B09"/>
   <stop offset="1" style="stop-opacity:1; stop-color:#EB770A"/>
  </linearGradient>
  <linearGradient id="id1" gradientUnits="userSpaceOnUse" x1="6.947" y1="12.501" x2="6.947" y2="10.602">
   <stop offset="0" style="stop-opacity:1; stop-color:#6F3C6D"/>
   <stop offset="1" style="stop-opacity:1; stop-color:#663764"/>
  </linearGradient>
  <linearGradient id="id2" gradientUnits="userSpaceOnUse" x1="6.947" y1="10.479" x2="6.947" y2="8.794">
   <stop offset="0" style="stop-opacity:1; stop-color:#BE3106"/>
   <stop offset="1" style="stop-opacity:1; stop-color:#AD3007"/>
  </linearGradient>
  <linearGradient id="id3" gradientUnits="userSpaceOnUse" x1="10.622" y1="12.531" x2="10.622" y2="10.602">
   <stop offset="0" style="stop-opacity:1; stop-color:#844980"/>
   <stop offset="1" style="stop-opacity:1; stop-color:#703F6C"/>
  </linearGradient>
  <linearGradient id="id4" gradientUnits="userSpaceOnUse" x1="10.561" y1="10.969" x2="10.561" y2="8.703">
   <stop offset="0" style="stop-opacity:1; stop-color:#D73A00"/>
   <stop offset="1" style="stop-opacity:1; stop-color:#CD2901"/>
  </linearGradient>
  <linearGradient id="id5" gradientUnits="userSpaceOnUse" x1="7.161" y1="6.773" x2="7.161" y2="8.611">
   <stop offset="0" style="stop-opacity:1; stop-color:#DE4A01"/>
   <stop offset="1" style="stop-opacity:1; stop-color:#E15900"/>
  </linearGradient>
 </defs>
 <g id="Layer_x0020_1">
  <metadata id="CorelCorpID_0Corel-Layer"/>
  <rect class="fil0" width="19.651" height="17.405"/>
  <g id="_2131872448416">
   <path class="fil1" d="M9.826 7.664l3.828 -0.876 0 -1.611 0 0c0,-0.168 -0.135,-0.303 -0.303,-0.303l-5.44 0 -1.914 1.914 3.829 0.876z"/>
   <polygon class="fil2" points="7.911,6.788 5.997,6.788 5.997,9.625 8.368,8.644 "/>
   <polygon class="fil3" points="10.521,9.214 7.911,8.749 7.911,6.788 13.654,6.788 13.654,8.724 "/>
   <polygon class="fil4" points="11.283,10.981 7.492,10.629 7.492,8.703 13.654,8.703 13.654,10.617 "/>
   <polygon class="fil5" points="7.911,8.703 5.997,8.703 5.997,11.254 7.911,10.617 "/>
   <polygon class="fil6" points="13.654,10.617 11.74,12.531 7.911,12.531 7.617,11.53 7.911,10.617 "/>
   <path class="fil7" d="M5.997 10.617l0 1.491c0,0.233 0.19,0.42 0.423,0.42l1.491 0 0 0 0 -1.914 0 0 -1.914 0 0 0.003z"/>
  </g>
 </g>
</svg>
