<?xml version="1.0" encoding="UTF-8"?>
<!DOCTYPE svg PUBLIC "-//W3C//DTD SVG 1.1//EN" "http://www.w3.org/Graphics/SVG/1.1/DTD/svg11.dtd">
<!-- Creator: CorelDRAW -->
<svg xmlns="http://www.w3.org/2000/svg" xml:space="preserve" width="164px" height="146px" version="1.1" style="shape-rendering:geometricPrecision; text-rendering:geometricPrecision; image-rendering:optimizeQuality; fill-rule:evenodd; clip-rule:evenodd"
viewBox="0 0 25.789 22.846"
 xmlns:xlink="http://www.w3.org/1999/xlink"
 xmlns:xodm="http://www.corel.com/coreldraw/odm/2003">
 <defs>
  <style type="text/css">
   <![CDATA[
    .fil0 {fill:none;fill-rule:nonzero}
    .fil2 {fill:#424242}
    .fil1 {fill:#7ECA72}
    .fil3 {fill:#7ECF72}
   ]]>
  </style>
 </defs>
 <g id="Layer_x0020_1">
  <metadata id="CorelCorpID_0Corel-Layer"/>
  <rect class="fil0" width="25.789" height="22.846"/>
  <g id="_2569109754288">
   <path class="fil1" d="M9.797 7.527c-0.697,-0.314 -1.608,-0.661 -2.396,-0.574 -0.042,0.005 0.677,1.986 0.741,2.277 0.001,0.007 -0.598,1.795 -0.598,2.081 0,0.368 0.675,1.754 0.559,2.343 -0.156,0.438 -0.326,0.951 -0.403,1.413 -0.049,0.284 -0.134,0.687 -0.134,0.956 0.103,-0.011 0.216,-0.025 0.319,-0.025 -0.002,-0.026 -0.044,-0.085 -0.044,-0.209 0,-0.011 0.126,-0.497 0.153,-0.541 0.31,-0.51 2.241,-2.274 2.797,-2.83 0.124,-0.124 0.434,-0.206 0.594,-0.222 0.109,-0.011 0.203,-0.105 0.265,-0.197 -0.139,-0.264 -0.275,-0.459 -0.385,-0.753 -0.333,-0.931 -0.355,-1.776 -0.029,-2.717 0.195,-0.561 0.584,-1.126 0.997,-1.524 0.091,-0.087 -0.302,-0.068 -0.311,-0.062 -0.234,0.176 -1.786,0.584 -2.125,0.584z"/>
   <path class="fil2" d="M12 9.89c0,-1.183 0.586,-2.051 1.532,-2.617 0.206,-0.123 0.487,-0.221 0.724,-0.28 0.437,-0.109 0.943,-0.111 1.382,0 0.767,0.192 1.368,0.635 1.799,1.284 0.178,0.268 0.3,0.582 0.378,0.893 0.126,0.502 0.1,1.026 -0.038,1.523 -0.293,1.06 -1.226,1.85 -2.3,2.068 -1.476,0.3 -3.085,-0.734 -3.398,-2.219 -0.048,-0.226 -0.079,-0.412 -0.079,-0.652zm3.674 -3.4c0.882,0.182 1.532,0.664 2.063,1.349 0.282,0.384 0.453,0.783 0.567,1.236 0.105,0.417 0.085,0.637 0.083,1.024 -0.005,0.725 -0.463,1.656 -0.97,2.161 -0.759,0.73 -1.528,1.045 -2.542,1.045 -0.841,0 -1.524,-0.329 -2.16,-0.823l-0.724 0.726c0.121,0.147 0.08,0.084 0.097,0.135l-0.132 0.134c0.032,0.048 0.035,0.085 0.049,0.118l-2.742 2.741c-0.021,-0.006 -0.069,-0.059 -0.094,-0.072 -0.048,0.032 -0.135,0.126 -0.18,0.169 -0.277,-0.241 -0.421,-0.393 -0.67,-0.666 0.015,-0.022 0.157,-0.147 0.181,-0.169 -0.02,-0.029 -0.069,-0.075 -0.079,-0.104l2.742 -2.742c0.063,0.015 0.075,0.029 0.122,0.044l0.131 -0.129c0.046,0.037 0.106,0.095 0.15,0.12l0.731 -0.729c-0.013,-0.019 -0.027,-0.035 -0.041,-0.053l-0.04 -0.05c-0.449,-0.561 -0.601,-1.112 -0.702,-1.804 -0.015,-0.484 -0.009,-0.857 0.147,-1.328 0.091,-0.273 0.202,-0.526 0.355,-0.77 0.19,-0.301 0.44,-0.583 0.705,-0.82 0.471,-0.419 1.089,-0.677 1.707,-0.78 0.409,-0.069 0.842,-0.046 1.246,0.037z"/>
   <path class="fil3" d="M10.006 16.301c0.637,0.053 1.349,-0.242 1.916,-0.512 0.514,0 1.742,0.634 2.231,0.634 0.476,0 1.656,-0.54 2.262,-0.59 0,-0.573 0.568,-2.238 0.556,-2.306 -0.011,-0.064 -0.042,-0.202 -0.044,-0.257 -1.45,0.497 -2.024,0.851 -4.155,-0.137l-0.186 0.183c-0.015,0.019 -0.099,0.466 -0.193,0.591 -0.598,0.803 -1.916,1.692 -2.387,2.394z"/>
  </g>
 </g>
</svg>
