<?xml version="1.0" encoding="UTF-8"?>
<!DOCTYPE svg PUBLIC "-//W3C//DTD SVG 1.1//EN" "http://www.w3.org/Graphics/SVG/1.1/DTD/svg11.dtd">
<!-- Creator: CorelDRAW -->
<svg xmlns="http://www.w3.org/2000/svg" xml:space="preserve" width="70px" height="62px" version="1.1" style="shape-rendering:geometricPrecision; text-rendering:geometricPrecision; image-rendering:optimizeQuality; fill-rule:evenodd; clip-rule:evenodd"
viewBox="0 0 11.754 10.41"
 xmlns:xlink="http://www.w3.org/1999/xlink"
 xmlns:xodm="http://www.corel.com/coreldraw/odm/2003">
 <defs>
  <style type="text/css">
   <![CDATA[
    .fil0 {fill:none}
    .fil1 {fill:#4F739E}
   ]]>
  </style>
 </defs>
 <g id="Layer_x0020_1">
  <metadata id="CorelCorpID_0Corel-Layer"/>
  <rect class="fil0" width="11.754" height="10.41"/>
 </g>
 <g id="__x0023_Layer_x0020_1">
  <metadata id="CorelCorpID_1Corel-Layer"/>
  <g id="_2716211853504">
   <path class="fil1" d="M5.659 2.872l0.472 0c0.204,0 0.37,0.165 0.37,0.37l0 0.471c0,0.205 -0.166,0.371 -0.37,0.371l-0.472 0c-0.204,0 -0.37,-0.166 -0.37,-0.371l0 -0.471c0,-0.205 0.166,-0.371 0.37,-0.371l0 0.001z"/>
   <path class="fil1" d="M7.386 2.872l0.471 0c0.205,0 0.371,0.165 0.371,0.37l0 0.471c0,0.205 -0.166,0.371 -0.371,0.371l-0.471 0c-0.205,0 -0.371,-0.166 -0.371,-0.371l0 -0.471c0,-0.205 0.166,-0.371 0.371,-0.371l0 0.001z"/>
   <path class="fil1" d="M7.386 4.6l0.471 0c0.205,0 0.371,0.166 0.371,0.371l0 0.471c0,0.204 -0.166,0.37 -0.371,0.37l-0.471 0c-0.205,0 -0.371,-0.165 -0.371,-0.37l0 -0.471c0,-0.205 0.166,-0.371 0.371,-0.371z"/>
   <path class="fil1" d="M5.659 4.6l0.472 0c0.204,0 0.37,0.166 0.37,0.371l0 0.471c0,0.204 -0.166,0.37 -0.37,0.37l-0.472 0c-0.204,0 -0.37,-0.165 -0.37,-0.37l0 -0.471c0,-0.205 0.166,-0.371 0.37,-0.371z"/>
   <path class="fil1" d="M7.386 6.327l0.471 0c0.205,0 0.371,0.165 0.371,0.37l0 0.471c0,0.205 -0.166,0.371 -0.371,0.371l-0.471 0c-0.205,0 -0.371,-0.166 -0.371,-0.371l0 -0.471c0,-0.204 0.166,-0.37 0.371,-0.37l0 0z"/>
   <path class="fil1" d="M5.659 6.327l0.472 0c0.204,0 0.37,0.165 0.37,0.37l0 0.471c0,0.205 -0.166,0.371 -0.37,0.371l-0.472 0c-0.204,0 -0.37,-0.166 -0.37,-0.371l0 -0.471c0,-0.204 0.166,-0.37 0.37,-0.37l0 0z"/>
   <path class="fil1" d="M3.897 6.327l0.471 0c0.205,0 0.37,0.165 0.37,0.37l0 0.471c0,0.205 -0.165,0.371 -0.37,0.371l-0.471 0c-0.205,0 -0.371,-0.166 -0.371,-0.371l0 -0.471c0,-0.204 0.166,-0.37 0.371,-0.37l0 0z"/>
   <path class="fil1" d="M3.897 4.6l0.471 0c0.205,0 0.37,0.166 0.37,0.371l0 0.471c0,0.204 -0.165,0.37 -0.37,0.37l-0.471 0c-0.205,0 -0.371,-0.165 -0.371,-0.37l0 -0.471c0,-0.205 0.166,-0.371 0.371,-0.371z"/>
  </g>
 </g>
</svg>
