<?xml version="1.0" encoding="UTF-8"?>
<!DOCTYPE svg PUBLIC "-//W3C//DTD SVG 1.0//EN" "http://www.w3.org/TR/2001/REC-SVG-20010904/DTD/svg10.dtd">
<!-- Creator: CorelDRAW -->
<svg xmlns="http://www.w3.org/2000/svg" xml:space="preserve" width="123px" height="109px" version="1.0" style="shape-rendering:geometricPrecision; text-rendering:geometricPrecision; image-rendering:optimizeQuality; fill-rule:evenodd; clip-rule:evenodd"
viewBox="0 0 12.968 11.486"
 xmlns:xlink="http://www.w3.org/1999/xlink"
 xmlns:xodm="http://www.corel.com/coreldraw/odm/2003">
 <defs>
  <style type="text/css">
   <![CDATA[
    .fil0 {fill:none}
    .fil1 {fill:#5059C9;fill-rule:nonzero}
    .fil2 {fill:#7B83EB;fill-rule:nonzero}
    .fil6 {fill:white;fill-rule:nonzero}
    .fil3 {fill:black;fill-rule:nonzero;fill-opacity:0.101961}
    .fil4 {fill:black;fill-rule:nonzero;fill-opacity:0.200000}
    .fil5 {fill:url(#id0);fill-rule:nonzero}
   ]]>
  </style>
  <linearGradient id="id0" gradientUnits="userSpaceOnUse" x1="4.096" y1="-1.35" x2="6.034" y2="2.009">
   <stop offset="0" style="stop-opacity:1; stop-color:#5A62C3"/>
   <stop offset="0.501961" style="stop-opacity:1; stop-color:#4D55BD"/>
   <stop offset="1" style="stop-opacity:1; stop-color:#3940AB"/>
  </linearGradient>
 </defs>
 <g id="Layer_x0020_1">
  <metadata id="CorelCorpID_0Corel-Layer"/>
  <rect class="fil0" width="12.968" height="11.486"/>
  <g id="_2419747158832">
   <path class="fil1" d="M7.631 5.067l1.5 0c0.142,0 0.257,0.115 0.257,0.257 0,0 0,0 0,0l0 1.367c0,0.521 -0.422,0.943 -0.943,0.943l0 0 -0.005 0c-0.521,0 -0.943,-0.422 -0.943,-0.943 0,0 0,0 0,0l0 -1.489c0,-0.075 0.06,-0.135 0.134,-0.135l0 0z"/>
   <circle class="fil1" cx="8.645" cy="4.189" r="0.608"/>
   <circle class="fil2" cx="6.754" cy="3.919" r="0.878"/>
   <path class="fil2" d="M7.925 5.067l-2.477 0c-0.14,0.004 -0.251,0.12 -0.247,0.26l0 1.559c-0.02,0.84 0.645,1.538 1.485,1.558 0.841,-0.02 1.506,-0.718 1.486,-1.558l0 -1.559c0.004,-0.14 -0.107,-0.256 -0.247,-0.26z"/>
   <path class="fil3" d="M6.821 5.067l0 2.185c0,0.1 -0.061,0.19 -0.154,0.228 -0.029,0.012 -0.061,0.019 -0.093,0.019l-1.255 0c-0.017,-0.045 -0.033,-0.089 -0.047,-0.135 -0.047,-0.155 -0.071,-0.316 -0.071,-0.478l0 -1.559c-0.004,-0.14 0.107,-0.256 0.247,-0.26l1.373 0z"/>
   <path class="fil4" d="M6.686 5.067l0 2.32c0,0.032 -0.006,0.063 -0.019,0.093 -0.038,0.093 -0.128,0.153 -0.228,0.154l-1.056 0c-0.023,-0.045 -0.045,-0.089 -0.064,-0.135 -0.019,-0.046 -0.033,-0.089 -0.047,-0.135 -0.047,-0.155 -0.071,-0.316 -0.071,-0.478l0 -1.559c-0.004,-0.14 0.107,-0.256 0.247,-0.26l1.238 0z"/>
   <path class="fil4" d="M6.686 5.067l0 2.05c-0.001,0.136 -0.111,0.246 -0.247,0.247l-1.167 0c-0.047,-0.155 -0.071,-0.316 -0.071,-0.478l0 -1.559c-0.004,-0.14 0.107,-0.256 0.247,-0.26l1.238 0z"/>
   <path class="fil4" d="M6.551 5.067l0 2.05c-0.001,0.136 -0.111,0.246 -0.247,0.247l-1.032 0c-0.047,-0.155 -0.071,-0.316 -0.071,-0.478l0 -1.559c-0.004,-0.14 0.107,-0.256 0.247,-0.26l1.103 0z"/>
   <path class="fil3" d="M6.821 4.369l0 0.426c-0.022,0.001 -0.044,0.002 -0.067,0.002 -0.023,0 -0.045,-0.001 -0.068,-0.002 -0.045,-0.003 -0.09,-0.011 -0.135,-0.022 -0.273,-0.065 -0.499,-0.257 -0.608,-0.516 -0.018,-0.044 -0.033,-0.089 -0.043,-0.135l0.674 0c0.137,0 0.247,0.111 0.247,0.247z"/>
   <path class="fil4" d="M6.686 4.504l0 0.291c-0.045,-0.003 -0.09,-0.011 -0.135,-0.022 -0.273,-0.065 -0.499,-0.257 -0.608,-0.516l0.496 0c0.137,0 0.247,0.111 0.247,0.247z"/>
   <path class="fil4" d="M6.686 4.504l0 0.291c-0.045,-0.003 -0.09,-0.011 -0.135,-0.022 -0.273,-0.065 -0.499,-0.257 -0.608,-0.516l0.496 0c0.137,0 0.247,0.111 0.247,0.247z"/>
   <path class="fil4" d="M6.551 4.504l0 0.269c-0.273,-0.065 -0.499,-0.257 -0.608,-0.516l0.361 0c0.136,0 0.247,0.111 0.247,0.247z"/>
   <path class="fil5" d="M3.827 4.257l2.477 0c0.136,0 0.247,0.111 0.247,0.248l0 2.476c0,0.137 -0.111,0.248 -0.247,0.248l-2.477 0c-0.137,0 -0.247,-0.111 -0.247,-0.248l0 -2.476c0,-0.137 0.11,-0.248 0.247,-0.248z"/>
   <polygon class="fil6" points="5.717,5.2 5.222,5.2 5.222,6.548 4.907,6.548 4.907,5.2 4.414,5.2 4.414,4.938 5.717,4.938 "/>
  </g>
 </g>
</svg>
