<?xml version="1.0" encoding="UTF-8"?>
<!DOCTYPE svg PUBLIC "-//W3C//DTD SVG 1.1//EN" "http://www.w3.org/Graphics/SVG/1.1/DTD/svg11.dtd">
<!-- Creator: CorelDRAW -->
<svg xmlns="http://www.w3.org/2000/svg" xml:space="preserve" width="70px" height="62px" version="1.1" style="shape-rendering:geometricPrecision; text-rendering:geometricPrecision; image-rendering:optimizeQuality; fill-rule:evenodd; clip-rule:evenodd"
viewBox="0 0 59.677 52.857"
 xmlns:xlink="http://www.w3.org/1999/xlink"
 xmlns:xodm="http://www.corel.com/coreldraw/odm/2003">
 <defs>
  <style type="text/css">
   <![CDATA[
    .fil0 {fill:none}
    .fil1 {fill:url(#id0)}
    .fil3 {fill:url(#id1);fill-rule:nonzero}
    .fil2 {fill:url(#id2);fill-rule:nonzero}
   ]]>
  </style>
  <radialGradient id="id0" gradientUnits="userSpaceOnUse" gradientTransform="matrix(-1.3357 -1.54884 1.10917 -0.965678 52 120)" cx="37.302" cy="31.403" r="218.993" fx="37.302" fy="31.403">
   <stop offset="0" style="stop-opacity:1; stop-color:#00CACC"/>
   <stop offset="1" style="stop-opacity:1; stop-color:#048FCE"/>
  </radialGradient>
  <linearGradient id="id1" gradientUnits="userSpaceOnUse" x1="24.511" y1="14.077" x2="24.511" y2="35.41">
   <stop offset="0" style="stop-opacity:1; stop-color:#00BBEC"/>
   <stop offset="1" style="stop-opacity:1; stop-color:#2756A9"/>
  </linearGradient>
  <radialGradient id="id2" gradientUnits="userSpaceOnUse" gradientTransform="matrix(1.65356 -0.708382 1.18084 2.75502 -58 -47)" cx="23.823" cy="36.12" r="270.863" fx="23.823" fy="36.12">
   <stop offset="0" style="stop-opacity:1; stop-color:#00BBEC"/>
   <stop offset="1" style="stop-opacity:1; stop-color:#2756A9"/>
  </radialGradient>
 </defs>
 <g id="Layer_x0020_1">
  <metadata id="CorelCorpID_0Corel-Layer"/>
  <rect class="fil0" width="59.677" height="52.857"/>
 </g>
 <g id="__x0023_Layer_x0020_1">
  <metadata id="CorelCorpID_1Corel-Layer"/>
  <g id="_1476743891392">
   <path class="fil1" d="M29.93 21.863c-0.456,0.053 -0.803,0.423 -0.836,0.89 -0.014,0.201 -0.009,0.215 0.446,1.388 1.038,2.668 1.289,3.311 1.331,3.401 0.102,0.219 0.246,0.425 0.426,0.61 0.138,0.142 0.229,0.218 0.383,0.321 0.271,0.18 0.405,0.23 1.458,0.542 1.025,0.304 1.586,0.505 2.068,0.745 0.626,0.311 1.062,0.664 1.338,1.083 0.198,0.3 0.374,0.839 0.45,1.382 0.03,0.212 0.03,0.681 0.001,0.873 -0.065,0.416 -0.193,0.765 -0.39,1.057 -0.105,0.155 -0.069,0.129 0.083,-0.06 0.431,-0.535 0.87,-1.45 1.093,-2.28 0.271,-1.004 0.308,-2.082 0.106,-3.103 -0.392,-1.987 -1.647,-3.702 -3.414,-4.667 -0.111,-0.061 -0.533,-0.282 -1.107,-0.58 -0.087,-0.046 -0.206,-0.107 -0.264,-0.138 -0.058,-0.03 -0.176,-0.092 -0.263,-0.138 -0.087,-0.045 -0.337,-0.175 -0.557,-0.29 -0.219,-0.114 -0.464,-0.242 -0.544,-0.283 -0.246,-0.128 -0.411,-0.214 -0.533,-0.279 -0.568,-0.297 -0.809,-0.417 -0.877,-0.438 -0.072,-0.022 -0.255,-0.05 -0.301,-0.046 -0.009,0 -0.053,0.005 -0.097,0.01z"/>
   <path class="fil2" d="M31.168 31.826c-0.031,0.018 -0.076,0.045 -0.098,0.059 -0.023,0.015 -0.073,0.046 -0.111,0.07 -0.142,0.087 -0.52,0.319 -0.844,0.519 -0.213,0.132 -0.245,0.152 -0.515,0.32 -0.097,0.06 -0.2,0.123 -0.229,0.14 -0.029,0.017 -0.153,0.094 -0.275,0.17 -0.123,0.076 -0.336,0.208 -0.475,0.293 -0.138,0.085 -0.386,0.238 -0.55,0.339 -0.165,0.102 -0.381,0.235 -0.481,0.296 -0.1,0.062 -0.192,0.121 -0.205,0.132 -0.019,0.016 -0.907,0.567 -1.353,0.838 -0.338,0.206 -0.73,0.344 -1.131,0.399 -0.187,0.025 -0.54,0.025 -0.726,0 -0.505,-0.068 -0.969,-0.257 -1.367,-0.554 -0.157,-0.117 -0.451,-0.41 -0.563,-0.562 -0.265,-0.358 -0.436,-0.741 -0.525,-1.175 -0.021,-0.1 -0.04,-0.184 -0.043,-0.188 -0.008,-0.008 0.007,0.143 0.034,0.34 0.028,0.205 0.088,0.502 0.152,0.756 0.5,1.964 1.92,3.561 3.843,4.321 0.554,0.219 1.112,0.357 1.72,0.424 0.229,0.026 0.875,0.036 1.114,0.018 1.093,-0.083 2.045,-0.405 3.022,-1.022 0.087,-0.055 0.25,-0.158 0.363,-0.229 0.113,-0.071 0.255,-0.161 0.316,-0.201 0.062,-0.039 0.135,-0.085 0.164,-0.103 0.029,-0.017 0.087,-0.054 0.129,-0.081 0.042,-0.027 0.221,-0.14 0.399,-0.252l0.708 -0.447 0.243 -0.154 0.009 -0.005 0.027 -0.017 0.013 -0.009 0.179 -0.113 0.619 -0.39c0.789,-0.496 1.024,-0.67 1.39,-1.029 0.153,-0.15 0.383,-0.405 0.395,-0.438 0.002,-0.006 0.043,-0.069 0.091,-0.14 0.194,-0.287 0.323,-0.638 0.388,-1.053 0.029,-0.192 0.029,-0.661 -0.001,-0.873 -0.058,-0.41 -0.189,-0.875 -0.33,-1.172 -0.232,-0.485 -0.725,-0.927 -1.434,-1.282 -0.196,-0.098 -0.399,-0.188 -0.421,-0.187 -0.011,0.001 -0.671,0.404 -1.466,0.897 -0.796,0.492 -1.487,0.919 -1.535,0.949 -0.048,0.03 -0.131,0.081 -0.185,0.113l-0.455 0.283z"/>
   <path class="fil3" d="M21.665 29.463l0.004 3.43 0.044 0.199c0.139,0.623 0.379,1.072 0.797,1.489 0.197,0.196 0.348,0.314 0.561,0.44 0.451,0.267 0.936,0.399 1.468,0.399 0.556,-0.001 1.038,-0.14 1.534,-0.443 0.084,-0.051 0.412,-0.253 0.729,-0.449l0.578 -0.356 0 -4.069 0 -4.07 -0.001 -3.722c0,-2.375 -0.004,-3.786 -0.012,-3.896 -0.047,-0.696 -0.338,-1.335 -0.827,-1.819 -0.15,-0.148 -0.278,-0.247 -0.66,-0.51 -0.19,-0.131 -0.538,-0.37 -0.773,-0.533 -0.236,-0.162 -0.623,-0.429 -0.861,-0.593 -0.239,-0.164 -0.579,-0.399 -0.756,-0.521 -0.369,-0.254 -0.398,-0.272 -0.51,-0.312 -0.145,-0.052 -0.299,-0.071 -0.445,-0.055 -0.426,0.046 -0.767,0.354 -0.856,0.772 -0.014,0.065 -0.016,0.931 -0.017,5.633l0 5.556 0 0 0.003 3.43z"/>
  </g>
 </g>
</svg>
