<?xml version="1.0" encoding="UTF-8"?>
<!DOCTYPE svg PUBLIC "-//W3C//DTD SVG 1.1//EN" "http://www.w3.org/Graphics/SVG/1.1/DTD/svg11.dtd">
<!-- Creator: CorelDRAW -->
<svg xmlns="http://www.w3.org/2000/svg" xml:space="preserve" width="70px" height="62px" version="1.1" style="shape-rendering:geometricPrecision; text-rendering:geometricPrecision; image-rendering:optimizeQuality; fill-rule:evenodd; clip-rule:evenodd"
viewBox="0 0 11.801 10.453"
 xmlns:xlink="http://www.w3.org/1999/xlink"
 xmlns:xodm="http://www.corel.com/coreldraw/odm/2003">
 <defs>
  <style type="text/css">
   <![CDATA[
    .fil0 {fill:none}
    .fil2 {fill:none;fill-rule:nonzero}
    .fil3 {fill:#107C41;fill-rule:nonzero}
    .fil5 {fill:#185C37;fill-rule:nonzero}
    .fil1 {fill:#21A366;fill-rule:nonzero}
    .fil4 {fill:#33C481;fill-rule:nonzero}
    .fil7 {fill:white;fill-rule:nonzero}
    .fil6 {fill:black;fill-rule:nonzero;fill-opacity:0.501961}
   ]]>
  </style>
 </defs>
 <g id="Layer_x0020_1">
  <metadata id="CorelCorpID_0Corel-Layer"/>
  <rect class="fil0" width="11.801" height="10.453"/>
 </g>
 <g id="__x0023_Layer_x0020_1">
  <metadata id="CorelCorpID_1Corel-Layer"/>
  <g id="_1476734963280">
   <g id="Excel">
    <g id="_24" data-name="24">
     <path class="fil1" d="M6.687 3.063l-1.77 0c-0.108,0 -0.196,0.088 -0.196,0.196l-0.001 0.984 1.967 0.983 0.787 0.295 0.787 -0.295 0 -0.983 -1.574 -1.18z"/>
     <rect class="fil2" x="3.54" y="2.866" width="4.72" height="4.72"/>
     <rect class="fil3" x="4.72" y="4.247" width="1.967" height="0.979"/>
     <path class="fil4" d="M8.261 3.259l0 0.984 -1.574 0 0 -1.18 1.377 0c0.109,0 0.197,0.088 0.197,0.196z"/>
     <path class="fil5" d="M6.687 5.226l-1.967 0 0 1.967c0.001,0.109 0.089,0.197 0.197,0.197l3.147 0c0.109,0 0.197,-0.088 0.197,-0.197l0 -0.983 -1.574 -0.984z"/>
     <path class="fil6" d="M6.261 4.046l-1.541 0 0 2.754 1.495 0c0.145,-0.009 0.262,-0.122 0.276,-0.266l0 -2.258c-0.001,-0.126 -0.104,-0.229 -0.23,-0.23z"/>
     <path class="fil3" d="M3.77 3.849l2.294 0c0.127,0 0.23,0.103 0.23,0.231l0 2.293c0,0.127 -0.103,0.23 -0.23,0.23l-2.294 0c-0.127,0 -0.23,-0.103 -0.23,-0.23l0 -2.293c0,-0.128 0.103,-0.231 0.231,-0.231z" data-name="Back Plate"/>
     <path class="fil7" d="M4.215 6.013l0.505 -0.787 -0.464 -0.786 0.376 0 0.256 0.501c0.018,0.034 0.034,0.07 0.047,0.106l0 0c0.016,-0.037 0.034,-0.074 0.053,-0.11l0.275 -0.497 0.345 0 -0.478 0.786 0.489 0.787 -0.366 0 -0.295 -0.551c-0.016,-0.023 -0.029,-0.047 -0.041,-0.073l0 0.001c-0.008,0.024 -0.019,0.048 -0.033,0.07l-0.301 0.553 -0.368 0z"/>
     <rect class="fil3" x="6.687" y="5.226" width="1.574" height="0.983"/>
    </g>
   </g>
  </g>
 </g>
</svg>
