<?xml version="1.0" encoding="UTF-8"?>
<!DOCTYPE svg PUBLIC "-//W3C//DTD SVG 1.1//EN" "http://www.w3.org/Graphics/SVG/1.1/DTD/svg11.dtd">
<!-- Creator: CorelDRAW -->
<svg xmlns="http://www.w3.org/2000/svg" xml:space="preserve" width="123px" height="109px" version="1.1" style="shape-rendering:geometricPrecision; text-rendering:geometricPrecision; image-rendering:optimizeQuality; fill-rule:evenodd; clip-rule:evenodd"
viewBox="0 0 69.213 61.314"
 xmlns:xlink="http://www.w3.org/1999/xlink"
 xmlns:xodm="http://www.corel.com/coreldraw/odm/2003">
 <defs>
  <style type="text/css">
   <![CDATA[
    .fil0 {fill:none}
    .fil1 {fill:#4196D1}
    .fil2 {fill:white}
   ]]>
  </style>
 </defs>
 <g id="Layer_x0020_1">
  <metadata id="CorelCorpID_0Corel-Layer"/>
  <rect class="fil0" width="69.213" height="61.314"/>
  <g id="_3003818342496">
   <path class="fil1" d="M37.511 25.879c0.223,0.464 0.691,0.694 1.017,1.035 -0.433,0.558 -1.215,2.345 -1.61,3.167 -0.167,0.347 -0.517,0.751 -0.429,1.126 0.077,0.324 1.834,4.218 2.036,4.527 0.243,-0.239 3.104,-6.922 3.228,-7.34l0.873 0.155c-1.307,3.054 -2.877,6.536 -4.114,9.568 -0.132,0.324 -0.116,0.437 -0.489,0.474 -0.299,-0.121 -0.1,0.048 -0.274,-0.273l-1.09 -2.591c-0.206,-0.515 -0.41,-0.958 -0.624,-1.468 -0.138,-0.328 -0.459,-1.27 -0.726,-1.516 -0.299,0.783 -1.746,3.433 -2.29,4.481 -0.146,0.28 -0.268,0.489 -0.398,0.775 -0.222,0.49 -0.206,0.693 -0.625,0.592 -0.279,-0.067 -0.701,-1.299 -0.814,-1.57 -0.249,-0.598 -0.469,-1.082 -0.74,-1.688l-2.896 -6.646c-0.364,-0.821 -0.846,-1.467 -1.534,-1.981 -0.338,-0.253 -0.456,-0.201 -0.843,-0.378l-0.008 -0.382 4.973 -0.015 0.004 0.408c-2.022,0.532 -1.541,0.625 0.185,4.593 0.325,0.745 2.055,4.923 2.332,5.242l1.37 -2.541c0.931,-1.882 1.112,-1.482 0.498,-2.718 -0.438,-0.88 -0.88,-1.858 -1.268,-2.749 -0.572,-1.313 -0.539,-1.704 -2.211,-1.806l-0.027 -0.414 4.359 -0.013c0.062,1.061 -1.579,-0.321 -0.571,1.943 0.233,0.524 0.85,1.981 1.126,2.339 0.204,-0.225 0.742,-1.411 0.867,-1.679 0.221,-0.473 0.697,-1.259 0.696,-1.778 -0.579,-0.486 -0.727,-0.297 -1,-0.389 -0.229,-0.076 -0.326,0.142 -0.224,-0.438l0.908 -0.033c0.268,-0.099 -0.004,0.086 0.207,-0.129 -0.375,-0.112 -1.101,-1.294 -1.372,-1.782 -2.435,-4.378 0.545,-7.311 -1.499,-7.391 -3.456,-0.135 -7.468,1.828 -9.168,3.501 -1.336,1.314 -1.834,1.73 -2.875,3.489 -1.101,1.861 -2.185,5.302 -1.903,7.499 0.068,0.529 1.381,2.4 1.816,2.931 0.508,0.62 1.678,1.96 2.262,2.426 0.595,0.474 1.082,0.938 1.774,1.407 4.787,3.238 10.576,4.622 16.365,3.876 0.709,-0.092 0.628,-0.049 1.062,-0.446 0.311,-0.284 0.544,-0.443 0.841,-0.751 1.859,-1.926 3.26,-4.525 3.765,-7.28 0.19,-1.032 0.579,-5.247 -0.407,-5.575 -0.387,-0.128 -1.865,0.553 -2.451,0.7 -0.882,0.22 -1.902,0.313 -2.816,0.173 -0.007,-0.015 -0.137,0.029 0.034,-0.431 0.604,-1.625 1.122,-1.513 1.973,-1.776l-0.02 -0.406 -3.876 -0.002c-0.059,0.598 -0.018,0.349 0.518,0.525 0.497,0.163 1.006,0.535 0.734,1.14 -0.14,0.31 -0.231,0.463 -0.316,0.788 -1.033,-0.208 -2.61,-0.89 -3.212,-1.47 0.161,-0.165 0.349,-0.293 0.684,-0.398 0.707,-0.222 0.76,0 0.713,-0.585 -0.703,0 -1.867,0.094 -2.5,-0.052z"/>
   <path class="fil2" d="M37.511 25.879c0.023,-0.239 0.038,-0.08 -0.126,-0.11 -0.211,0.215 0.061,0.03 -0.207,0.129l-0.908 0.033c-0.102,0.58 -0.005,0.362 0.224,0.438 0.273,0.092 0.421,-0.097 1,0.389 0.001,0.519 -0.475,1.305 -0.696,1.778 -0.125,0.268 -0.663,1.454 -0.867,1.679 -0.276,-0.358 -0.893,-1.815 -1.126,-2.339 -1.008,-2.264 0.633,-0.882 0.571,-1.943l-4.359 0.013 0.027 0.414c1.672,0.102 1.639,0.493 2.211,1.806 0.388,0.891 0.83,1.869 1.268,2.749 0.614,1.236 0.433,0.836 -0.498,2.718l-1.37 2.541c-0.277,-0.319 -2.007,-4.497 -2.332,-5.242 -1.726,-3.968 -2.207,-4.061 -0.185,-4.593l-0.004 -0.408 -4.973 0.015 0.008 0.382c0.387,0.177 0.505,0.125 0.843,0.378 0.688,0.514 1.17,1.16 1.534,1.981l2.896 6.646c0.271,0.606 0.491,1.09 0.74,1.688 0.113,0.271 0.535,1.503 0.814,1.57 0.419,0.101 0.403,-0.102 0.625,-0.592 0.13,-0.286 0.252,-0.495 0.398,-0.775 0.544,-1.048 1.991,-3.698 2.29,-4.481 0.267,0.246 0.588,1.188 0.726,1.516 0.214,0.51 0.418,0.953 0.624,1.468l1.09 2.591c0.174,0.321 -0.025,0.152 0.274,0.273 0.373,-0.037 0.357,-0.15 0.489,-0.474 1.237,-3.032 2.807,-6.514 4.114,-9.568l-0.873 -0.155c-0.124,0.418 -2.985,7.101 -3.228,7.34 -0.202,-0.309 -1.959,-4.203 -2.036,-4.527 -0.088,-0.375 0.262,-0.779 0.429,-1.126 0.395,-0.822 1.177,-2.609 1.61,-3.167 -0.326,-0.341 -0.794,-0.571 -1.017,-1.035z"/>
   <path class="fil1" d="M20.874 33.605c0.316,2.202 1.501,4.519 2.553,5.895 2.659,3.479 7.048,5.324 11.67,5.22 1.772,-0.039 5.424,-0.872 6.536,-1.892 -2.993,-0.046 -3.661,0.21 -6.913,-0.472 -2.089,-0.439 -3.874,-1.092 -5.65,-1.884 -2.234,-0.997 -5.097,-3.047 -6.514,-4.787 -0.293,-0.359 -0.568,-0.659 -0.883,-1.041 -0.29,-0.35 -0.512,-0.716 -0.799,-1.039z"/>
  </g>
 </g>
</svg>
