<?xml version="1.0" encoding="UTF-8"?>
<!DOCTYPE svg PUBLIC "-//W3C//DTD SVG 1.1//EN" "http://www.w3.org/Graphics/SVG/1.1/DTD/svg11.dtd">
<!-- Creator: CorelDRAW -->
<svg xmlns="http://www.w3.org/2000/svg" xml:space="preserve" width="70px" height="62px" version="1.1" style="shape-rendering:geometricPrecision; text-rendering:geometricPrecision; image-rendering:optimizeQuality; fill-rule:evenodd; clip-rule:evenodd"
viewBox="0 0 8.366 7.41"
 xmlns:xlink="http://www.w3.org/1999/xlink"
 xmlns:xodm="http://www.corel.com/coreldraw/odm/2003">
 <defs>
  <style type="text/css">
   <![CDATA[
    .fil0 {fill:none}
    .fil1 {fill:#F29900;fill-rule:nonzero}
    .fil2 {fill:#FBBC04;fill-rule:nonzero}
    .fil3 {fill:white;fill-rule:nonzero}
   ]]>
  </style>
 </defs>
 <g id="Layer_x0020_1">
  <metadata id="CorelCorpID_0Corel-Layer"/>
  <rect class="fil0" width="8.366" height="7.41"/>
 </g>
 <g id="__x0023_Layer_x0020_1">
  <metadata id="CorelCorpID_1Corel-Layer"/>
  <g id="_2534527411696">
   <polygon class="fil1" points="4.563,2.868 5.022,2.955 5.4,2.868 4.563,2.032 4.448,2.428 "/>
   <path class="fil2" d="M4.563 2.868l0 -0.836 -1.369 0c-0.126,0 -0.228,0.102 -0.228,0.228l0 2.89c0,0.126 0.102,0.228 0.228,0.228l1.978 0c0.126,0 0.228,-0.102 0.228,-0.228l0 -2.282 -0.837 0z"/>
   <path class="fil3" d="M4.449 4.466l-0.532 0 0 -0.19 0.532 0 0 0.19zm-0.002 -0.381l-0.527 0c-0.139,-0.087 -0.231,-0.242 -0.231,-0.418 0,-0.273 0.221,-0.494 0.494,-0.494 0.273,0 0.495,0.221 0.495,0.494 0,0.176 -0.093,0.331 -0.231,0.418l0 0z"/>
  </g>
 </g>
</svg>
