<?xml version="1.0" encoding="UTF-8"?>
<!DOCTYPE svg PUBLIC "-//W3C//DTD SVG 1.1//EN" "http://www.w3.org/Graphics/SVG/1.1/DTD/svg11.dtd">
<!-- Creator: CorelDRAW -->
<svg xmlns="http://www.w3.org/2000/svg" xml:space="preserve" width="70px" height="62px" version="1.1" style="shape-rendering:geometricPrecision; text-rendering:geometricPrecision; image-rendering:optimizeQuality; fill-rule:evenodd; clip-rule:evenodd"
viewBox="0 0 59.677 52.857"
 xmlns:xlink="http://www.w3.org/1999/xlink"
 xmlns:xodm="http://www.corel.com/coreldraw/odm/2003"
 data-name="Livello 1">
 <defs>
  <style type="text/css">
   <![CDATA[
    .fil0 {fill:none}
    .fil3 {fill:#A9C6D8;fill-rule:nonzero}
    .fil2 {fill:#C8DAEA;fill-rule:nonzero}
    .fil4 {fill:white;fill-rule:nonzero}
    .fil1 {fill:url(#id0);fill-rule:nonzero}
   ]]>
  </style>
  <linearGradient id="id0" gradientUnits="userSpaceOnUse" x1="29.839" y1="38.364" x2="29.839" y2="14.493">
   <stop offset="0" style="stop-opacity:1; stop-color:#1D93D2"/>
   <stop offset="1" style="stop-opacity:1; stop-color:#38B0E3"/>
  </linearGradient>
 </defs>
 <g id="Layer_x0020_1">
  <metadata id="CorelCorpID_0Corel-Layer"/>
  <rect class="fil0" width="59.677" height="52.857"/>
 </g>
 <g id="__x0023_Layer_x0020_1">
  <metadata id="CorelCorpID_1Corel-Layer"/>
  <g id="_1476735186160">
   <circle class="fil1" cx="29.839" cy="26.428" r="11.935"/>
   <path class="fil2" d="M25.982 27.301l1.417 3.919c0,0 0.176,0.367 0.366,0.367 0.19,0 3.009,-2.933 3.009,-2.933l3.136 -6.057 -7.877 3.692 -0.051 1.012z"/>
   <g>
    <path class="fil3" d="M27.86 28.306l-0.272 2.889c0,0 -0.114,0.885 0.771,0 0.886,-0.885 1.733,-1.568 1.733,-1.568l-2.232 -1.321zm0 0l0 0 0 0z"/>
   </g>
   <path class="fil4" d="M26.008 27.441l-2.913 -0.949c0,0 -0.348,-0.142 -0.236,-0.462 0.023,-0.066 0.07,-0.122 0.209,-0.219 0.645,-0.45 11.946,-4.511 11.946,-4.511 0,0 0.319,-0.108 0.507,-0.036 0.095,0.029 0.167,0.107 0.188,0.204 0.017,0.072 0.026,0.145 0.026,0.219 0,0.012 -0.001,0.026 -0.001,0.038 -0.001,0.075 -0.01,0.144 -0.017,0.253 -0.069,1.111 -2.128,9.399 -2.128,9.399 0,0 -0.123,0.485 -0.565,0.501 -0.009,0 -0.018,0 -0.026,0 -0.21,0 -0.412,-0.081 -0.564,-0.228 -0.866,-0.745 -3.86,-2.758 -4.522,-3.2 -0.03,-0.021 -0.05,-0.054 -0.054,-0.09 -0.01,-0.047 0.041,-0.104 0.041,-0.104 0,0 5.214,-4.635 5.353,-5.122 0.011,-0.037 -0.03,-0.056 -0.084,-0.04 -0.347,0.128 -6.35,3.919 -7.013,4.338 -0.03,0.009 -0.061,0.013 -0.092,0.013 -0.018,0 -0.037,-0.001 -0.055,-0.004l0 0z"/>
  </g>
 </g>
</svg>
