<?xml version="1.0" encoding="UTF-8"?>
<!DOCTYPE svg PUBLIC "-//W3C//DTD SVG 1.0//EN" "http://www.w3.org/TR/2001/REC-SVG-20010904/DTD/svg10.dtd">
<!-- Creator: CorelDRAW -->
<svg xmlns="http://www.w3.org/2000/svg" xml:space="preserve" width="123px" height="109px" version="1.0" style="shape-rendering:geometricPrecision; text-rendering:geometricPrecision; image-rendering:optimizeQuality; fill-rule:evenodd; clip-rule:evenodd"
viewBox="0 0 64.093 56.767"
 xmlns:xlink="http://www.w3.org/1999/xlink"
 xmlns:xodm="http://www.corel.com/coreldraw/odm/2003">
 <defs>
  <style type="text/css">
   <![CDATA[
    .fil0 {fill:none}
    .fil3 {fill:#168743}
    .fil4 {fill:#919191}
    .fil1 {fill:url(#id0)}
    .fil2 {fill:url(#id1)}
   ]]>
  </style>
  <linearGradient id="id0" gradientUnits="userSpaceOnUse" x1="25.192" y1="33.365" x2="25.192" y2="14.404">
   <stop offset="0" style="stop-opacity:1; stop-color:#05CD66"/>
   <stop offset="1" style="stop-opacity:1; stop-color:#9EEE69"/>
  </linearGradient>
  <linearGradient id="id1" gradientUnits="userSpaceOnUse" x1="36.568" y1="37.157" x2="36.568" y2="21.989">
   <stop offset="0" style="stop-opacity:1; stop-color:#E4E6E6"/>
   <stop offset="1" style="stop-opacity:1; stop-color:#F0F0F0"/>
  </linearGradient>
 </defs>
 <g id="Layer_x0020_1">
  <metadata id="CorelCorpID_0Corel-Layer"/>
  <rect class="fil0" width="64.093" height="56.767"/>
  <g id="_1476735170656">
   <g>
    <path class="fil1" d="M17.172 25.303c0,2.681 1.46,5.134 3.72,6.754 0.201,0.132 0.299,0.333 0.299,0.599 0,0.065 -0.034,0.163 -0.034,0.231 -0.166,0.66 -0.466,1.756 -0.496,1.786 -0.035,0.099 -0.069,0.167 -0.069,0.266 0,0.2 0.167,0.364 0.368,0.364 0.065,0 0.133,-0.035 0.197,-0.065l2.359 -1.358c0.167,-0.098 0.368,-0.166 0.565,-0.166 0.103,0 0.235,0 0.334,0.034 1.096,0.33 2.294,0.497 3.523,0.497 5.95,0 10.77,-4.008 10.77,-8.942 0,-4.934 -4.82,-8.942 -10.77,-8.942 -5.95,0 -10.766,4.008 -10.766,8.942l0 0z"/>
    <path class="fil2" d="M37.971 39.504c1.028,0 2.022,-0.132 2.917,-0.398 0.068,-0.034 0.166,-0.034 0.265,-0.034 0.167,0 0.334,0.068 0.466,0.133l1.957 1.133c0.065,0.035 0.098,0.069 0.163,0.069 0.167,0 0.3,-0.133 0.3,-0.3 0,-0.068 -0.035,-0.132 -0.035,-0.235 0,-0.034 -0.265,-0.933 -0.398,-1.501 -0.03,-0.065 -0.03,-0.133 -0.03,-0.201 0,-0.197 0.098,-0.364 0.265,-0.497 1.889,-1.369 3.083,-3.405 3.083,-5.673 0,-4.137 -4.012,-7.509 -8.953,-7.509 -4.941,0 -8.953,3.337 -8.953,7.509 0,4.137 4.012,7.505 8.953,7.505l0 0 0 -0.001z"/>
    <g>
     <path class="fil3" d="M25.734 22.417c0,0.77 -0.614,1.384 -1.384,1.384 -0.773,0 -1.384,-0.614 -1.384,-1.384 0,-0.773 0.611,-1.384 1.384,-1.384 0.77,0 1.384,0.611 1.384,1.384l0 0zm7.179 0c0,0.77 -0.614,1.384 -1.384,1.384 -0.773,0 -1.384,-0.614 -1.384,-1.384 0,-0.773 0.611,-1.384 1.384,-1.384 0.77,0 1.384,0.611 1.384,1.384l0 0zm0 0l0 0 0 0z"/>
    </g>
    <g>
     <g>
      <path class="fil4" d="M39.83 29.683c0,0.671 0.538,1.209 1.213,1.209 0.671,0 1.21,-0.538 1.21,-1.209 0,-0.675 -0.539,-1.213 -1.21,-1.213 -0.675,0 -1.213,0.538 -1.213,1.213l0 0zm-5.965 0c0,0.671 0.534,1.209 1.21,1.209 0.671,0 1.209,-0.538 1.209,-1.209 0,-0.675 -0.538,-1.213 -1.209,-1.213 -0.676,0 -1.21,0.538 -1.21,1.213z"/>
     </g>
    </g>
   </g>
  </g>
 </g>
</svg>
