<?xml version="1.0" encoding="UTF-8"?>
<!DOCTYPE svg PUBLIC "-//W3C//DTD SVG 1.1//EN" "http://www.w3.org/Graphics/SVG/1.1/DTD/svg11.dtd">
<!-- Creator: CorelDRAW -->
<svg xmlns="http://www.w3.org/2000/svg" xml:space="preserve" width="70px" height="62px" version="1.1" style="shape-rendering:geometricPrecision; text-rendering:geometricPrecision; image-rendering:optimizeQuality; fill-rule:evenodd; clip-rule:evenodd"
viewBox="0 0 59.317 52.538"
 xmlns:xlink="http://www.w3.org/1999/xlink"
 xmlns:xodm="http://www.corel.com/coreldraw/odm/2003">
 <defs>
  <style type="text/css">
   <![CDATA[
    .fil0 {fill:none}
    .fil3 {fill:none;fill-rule:nonzero}
    .fil5 {fill:white}
    .fil1 {fill:#B3B3B3;fill-rule:nonzero}
    .fil2 {fill:white;fill-rule:nonzero}
    .fil4 {fill:url(#id0);fill-rule:nonzero}
   ]]>
  </style>
  <linearGradient id="id0" gradientUnits="userSpaceOnUse" x1="29.29" y1="17.103" x2="29.455" y2="34.475">
   <stop offset="0" style="stop-opacity:1; stop-color:#57D163"/>
   <stop offset="1" style="stop-opacity:1; stop-color:#23B33A"/>
  </linearGradient>
 </defs>
 <g id="Layer_x0020_1">
  <metadata id="CorelCorpID_0Corel-Layer"/>
  <rect class="fil0" width="59.317" height="52.538"/>
 </g>
 <g id="__x0023_Layer_x0020_1">
  <metadata id="CorelCorpID_1Corel-Layer"/>
  <g id="_1476516496416">
   <path class="fil1" d="M24.248 34.715l0.37 0.219c1.553,0.922 3.334,1.41 5.15,1.411l0.004 0c5.577,0 10.115,-4.538 10.118,-10.115 0.001,-2.703 -1.051,-5.244 -2.961,-7.156 -1.886,-1.899 -4.453,-2.966 -7.13,-2.966 -0.007,0 -0.016,0 -0.023,0 -5.581,0 -10.12,4.537 -10.122,10.114 0,0.003 0,0.011 0,0.014 0,1.9 0.537,3.761 1.547,5.368l0.241 0.383 -1.022 3.732 3.828 -1.004zm-6.752 3.896l1.727 -6.306c-1.065,-1.846 -1.625,-3.939 -1.624,-6.084 0.002,-6.71 5.463,-12.169 12.173,-12.169 3.256,0.002 6.313,1.269 8.611,3.569 2.299,2.3 3.564,5.358 3.562,8.61 -0.002,6.709 -5.464,12.169 -12.173,12.169l-0.005 0c-2.038,-0.001 -4.039,-0.512 -5.817,-1.482l-6.454 1.693zm0 0z" filter="url(#a)"/>
   <path class="fil2" d="M17.371 38.486l1.727 -6.306c-1.062,-1.843 -1.624,-3.94 -1.624,-6.069 0,-0.005 0,-0.011 0,-0.016 0.003,-6.709 5.463,-12.168 12.173,-12.168 3.256,0.001 6.313,1.269 8.611,3.569 2.299,2.3 3.564,5.358 3.563,8.609 -0.003,6.71 -5.465,12.17 -12.174,12.17l-0.005 0c-2.037,-0.001 -4.039,-0.512 -5.817,-1.481l-6.454 1.692z"/>
   <path class="fil3" d="M29.651 15.983c-5.581,0 -10.12,4.537 -10.122,10.114 0,0.003 0,0.01 0,0.014 0,1.899 0.537,3.76 1.547,5.368l0.241 0.382 -1.023 3.733 3.83 -1.004 0.37 0.219c1.553,0.922 3.334,1.409 5.149,1.41l0.004 0.001c5.577,0 10.116,-4.538 10.118,-10.115 0,-0.01 0,-0.022 0,-0.032 0,-2.674 -1.066,-5.238 -2.961,-7.124 -1.886,-1.899 -4.453,-2.966 -7.129,-2.966 -0.008,0 -0.017,0 -0.024,0l0 0z"/>
   <path class="fil4" d="M29.651 15.983c-5.581,0 -10.12,4.537 -10.122,10.114 0,0.003 0,0.01 0,0.014 0,1.899 0.537,3.76 1.547,5.368l0.241 0.383 -1.023 3.732 3.83 -1.004 0.37 0.219c1.553,0.922 3.334,1.409 5.149,1.41l0.004 0.001c5.577,0 10.116,-4.538 10.118,-10.115 0,-0.01 0,-0.022 0,-0.032 0,-2.674 -1.066,-5.239 -2.961,-7.125 -1.886,-1.898 -4.453,-2.965 -7.129,-2.965 -0.008,0 -0.016,0 -0.024,0l0 0z"/>
   <path class="fil5" d="M26.605 21.008c-0.228,-0.506 -0.468,-0.516 -0.685,-0.525l-0.583 -0.007c-0.203,0 -0.532,0.076 -0.811,0.38 -0.279,0.305 -1.065,1.04 -1.065,2.537 0,1.497 1.09,2.942 1.242,3.146 0.152,0.203 2.104,3.372 5.196,4.591 2.57,1.013 3.092,0.812 3.65,0.761 0.558,-0.05 1.8,-0.736 2.053,-1.446 0.253,-0.71 0.253,-1.319 0.178,-1.446 -0.076,-0.127 -0.279,-0.203 -0.584,-0.355 -0.304,-0.152 -1.799,-0.888 -2.078,-0.99 -0.279,-0.101 -0.481,-0.152 -0.684,0.153 -0.203,0.304 -0.786,0.989 -0.963,1.192 -0.178,0.203 -0.355,0.228 -0.66,0.076 -0.304,-0.152 -1.283,-0.473 -2.445,-1.509 -0.905,-0.807 -1.515,-1.802 -1.693,-2.107 -0.178,-0.304 -0.019,-0.468 0.134,-0.62 0.137,-0.136 0.304,-0.355 0.457,-0.533 0.152,-0.177 0.202,-0.304 0.303,-0.507 0.102,-0.203 0.051,-0.381 -0.025,-0.533 -0.076,-0.152 -0.667,-1.656 -0.937,-2.258z"/>
  </g>
 </g>
</svg>
