<?xml version="1.0" encoding="UTF-8"?>
<!DOCTYPE svg PUBLIC "-//W3C//DTD SVG 1.1//EN" "http://www.w3.org/Graphics/SVG/1.1/DTD/svg11.dtd">
<!-- Creator: CorelDRAW -->
<svg xmlns="http://www.w3.org/2000/svg" xml:space="preserve" width="70px" height="62px" version="1.1" style="shape-rendering:geometricPrecision; text-rendering:geometricPrecision; image-rendering:optimizeQuality; fill-rule:evenodd; clip-rule:evenodd"
viewBox="0 0 11.801 10.453"
 xmlns:xlink="http://www.w3.org/1999/xlink"
 xmlns:xodm="http://www.corel.com/coreldraw/odm/2003">
 <defs>
  <style type="text/css">
   <![CDATA[
    .fil0 {fill:none}
    .fil1 {fill:red;fill-rule:nonzero}
    .fil2 {fill:white;fill-rule:nonzero}
   ]]>
  </style>
 </defs>
 <g id="Layer_x0020_1">
  <metadata id="CorelCorpID_0Corel-Layer"/>
  <rect class="fil0" width="11.801" height="10.453"/>
 </g>
 <g id="__x0023_Layer_x0020_1">
  <metadata id="CorelCorpID_1Corel-Layer"/>
  <g id="_1476647844208">
   <path class="fil1" d="M8.162 4.09c-0.054,-0.203 -0.214,-0.363 -0.417,-0.417 -0.368,-0.099 -1.844,-0.099 -1.844,-0.099 0,0 -1.477,0 -1.845,0.099 -0.203,0.054 -0.363,0.214 -0.417,0.417 -0.099,0.368 -0.099,1.136 -0.099,1.136 0,0 0,0.768 0.099,1.136 0.054,0.204 0.214,0.363 0.417,0.418 0.368,0.098 1.845,0.098 1.845,0.098 0,0 1.476,0 1.844,-0.098 0.203,-0.055 0.363,-0.214 0.417,-0.418 0.099,-0.368 0.099,-1.136 0.099,-1.136 0,0 -0.001,-0.768 -0.099,-1.136z"/>
   <polygon class="fil2" points="5.428,5.934 6.654,5.226 5.428,4.518 "/>
  </g>
 </g>
</svg>
