<?xml version="1.0" encoding="UTF-8"?>
<!DOCTYPE svg PUBLIC "-//W3C//DTD SVG 1.0//EN" "http://www.w3.org/TR/2001/REC-SVG-20010904/DTD/svg10.dtd">
<!-- Creator: CorelDRAW -->
<svg xmlns="http://www.w3.org/2000/svg" xml:space="preserve" width="124px" height="110px" version="1.0" style="shape-rendering:geometricPrecision; text-rendering:geometricPrecision; image-rendering:optimizeQuality; fill-rule:evenodd; clip-rule:evenodd"
viewBox="0 0 31.704 28.077"
 xmlns:xlink="http://www.w3.org/1999/xlink"
 xmlns:xodm="http://www.corel.com/coreldraw/odm/2003">
 <defs>
  <style type="text/css">
   <![CDATA[
    .fil0 {fill:none}
    .fil1 {fill:#5F01D1;fill-rule:nonzero}
   ]]>
  </style>
 </defs>
 <g id="Layer_x0020_1">
  <metadata id="CorelCorpID_0Corel-Layer"/>
  <rect class="fil0" width="31.704" height="28.077"/>
  <path class="fil1" d="M8.643 10.75l2.749 0 1.602 4.096 1.622 -4.096 2.678 0 -4.032 9.699 -2.695 0 1.103 -2.571 -3.027 -7.128 0 0 0 0zm11.769 3.272l-2.999 0 2.662 -6.394 2.988 0 -2.651 6.394 0 0 0 0zm-2.214 0.614c0.921,0 1.667,0.746 1.667,1.665 0,0.921 -0.746,1.666 -1.667,1.666 -0.919,0 -1.665,-0.745 -1.665,-1.666 0,-0.919 0.746,-1.665 1.665,-1.665z"/>
 </g>
</svg>
