<?xml version="1.0" encoding="UTF-8"?>
<!DOCTYPE svg PUBLIC "-//W3C//DTD SVG 1.1//EN" "http://www.w3.org/Graphics/SVG/1.1/DTD/svg11.dtd">
<!-- Creator: CorelDRAW -->
<svg xmlns="http://www.w3.org/2000/svg" xml:space="preserve" width="92px" height="82px" version="1.1" style="shape-rendering:geometricPrecision; text-rendering:geometricPrecision; image-rendering:optimizeQuality; fill-rule:evenodd; clip-rule:evenodd"
viewBox="0 0 8.396 7.437"
 xmlns:xlink="http://www.w3.org/1999/xlink"
 xmlns:xodm="http://www.corel.com/coreldraw/odm/2003">
 <defs>
  <style type="text/css">
   <![CDATA[
    .fil0 {fill:none}
    .fil2 {fill:white}
    .fil1 {fill:url(#id0)}
    .fil3 {fill:url(#id1)}
   ]]>
  </style>
  <linearGradient id="id0" gradientUnits="userSpaceOnUse" x1="2.607" y1="5.513" x2="5.729" y2="5.513">
   <stop offset="0" style="stop-opacity:1; stop-color:#FF5500"/>
   <stop offset="0.411765" style="stop-opacity:1; stop-color:#FF5500"/>
   <stop offset="0.580392" style="stop-opacity:1; stop-color:#FF2000"/>
   <stop offset="1" style="stop-opacity:1; stop-color:#FF2000"/>
  </linearGradient>
  <linearGradient id="id1" gradientUnits="userSpaceOnUse" x1="2.944" y1="2.533" x2="5.44" y2="2.533">
   <stop offset="0" style="stop-opacity:1; stop-color:#FF452A"/>
   <stop offset="1" style="stop-opacity:1; stop-color:#FF2000"/>
  </linearGradient>
 </defs>
 <g id="Layer_x0020_1">
  <metadata id="CorelCorpID_0Corel-Layer"/>
  <rect class="fil0" width="8.396" height="7.437"/>
  <g id="_1525356410624">
   <path class="fil1" d="M5.644 2.771l0.086 -0.209c0,0 -0.109,-0.117 -0.241,-0.249 -0.132,-0.131 -0.412,-0.054 -0.412,-0.054l-0.319 -0.361 -1.119 0 -0.319 0.361c0,0 -0.28,-0.078 -0.412,0.054 -0.08,0.081 -0.164,0.166 -0.241,0.248l0.086 0.21 -0.109 0.31c0,0 0.32,1.211 0.357,1.359 0.074,0.291 0.125,0.404 0.334,0.551 0.21,0.148 0.591,0.404 0.653,0.443 0.062,0.039 0.14,0.105 0.21,0.105 0.07,0 0.148,-0.066 0.21,-0.105 0.062,-0.039 0.443,-0.295 0.653,-0.443 0.21,-0.147 0.26,-0.26 0.334,-0.551 0.037,-0.148 0.357,-1.358 0.357,-1.358l-0.108 -0.311 0 0 0 0 0 0z"/>
   <path class="fil2" d="M4.595 2.554c0.046,0 0.392,-0.066 0.392,-0.066 0,0 0.41,0.495 0.41,0.601 0,0.087 -0.035,0.121 -0.077,0.162 -0.008,0.008 -0.017,0.017 -0.026,0.026l-0.308 0.326c-0.003,0.004 -0.006,0.007 -0.01,0.011 -0.03,0.031 -0.075,0.076 -0.044,0.151l0.007 0.016c0.035,0.081 0.078,0.182 0.023,0.284 -0.058,0.109 -0.158,0.181 -0.222,0.169 -0.064,-0.012 -0.215,-0.09 -0.27,-0.126 -0.056,-0.036 -0.231,-0.181 -0.231,-0.236 0,-0.046 0.126,-0.123 0.187,-0.16 0.012,-0.008 0.022,-0.013 0.028,-0.017 0.006,-0.004 0.016,-0.011 0.029,-0.019 0.057,-0.035 0.158,-0.097 0.16,-0.125 0.003,-0.035 0.002,-0.045 -0.043,-0.129 -0.01,-0.02 -0.021,-0.039 -0.032,-0.058 -0.043,-0.073 -0.091,-0.156 -0.081,-0.215 0.012,-0.067 0.117,-0.106 0.206,-0.138 0.011,-0.004 0.022,-0.008 0.032,-0.012 0.026,-0.01 0.059,-0.022 0.093,-0.035 0.088,-0.033 0.187,-0.07 0.203,-0.077 0.023,-0.01 0.017,-0.02 -0.051,-0.027 -0.01,-0.001 -0.023,-0.002 -0.033,-0.003 -0.084,-0.009 -0.24,-0.026 -0.316,-0.005 -0.015,0.005 -0.031,0.009 -0.049,0.014 -0.085,0.023 -0.189,0.051 -0.199,0.067 -0.002,0.003 -0.003,0.005 -0.005,0.008 -0.01,0.013 -0.016,0.022 -0.005,0.08 0.003,0.017 0.009,0.051 0.017,0.093 0.024,0.122 0.061,0.313 0.065,0.356 0.001,0.006 0.001,0.012 0.002,0.017 0.006,0.048 0.01,0.08 -0.046,0.093l-0.014 0.003c-0.063,0.015 -0.155,0.036 -0.188,0.036 -0.034,0 -0.126,-0.021 -0.189,-0.036l-0.014 -0.003c-0.056,-0.013 -0.052,-0.045 -0.046,-0.093 0.001,-0.005 0.001,-0.011 0.002,-0.017 0.005,-0.043 0.041,-0.234 0.065,-0.357 0.008,-0.041 0.014,-0.075 0.017,-0.092 0.011,-0.058 0.005,-0.067 -0.005,-0.08 -0.002,-0.003 -0.003,-0.005 -0.005,-0.008 -0.01,-0.016 -0.114,-0.044 -0.199,-0.067 -0.016,-0.004 -0.033,-0.01 -0.049,-0.014 -0.076,-0.021 -0.231,-0.005 -0.315,0.004 -0.011,0.002 -0.024,0.003 -0.034,0.004 -0.068,0.007 -0.073,0.017 -0.051,0.027 0.016,0.007 0.115,0.044 0.203,0.077 0.034,0.013 0.067,0.025 0.093,0.035 0.01,0.004 0.021,0.008 0.032,0.012 0.089,0.033 0.194,0.071 0.206,0.138 0.011,0.059 -0.037,0.142 -0.08,0.215 -0.012,0.02 -0.023,0.04 -0.033,0.058 -0.045,0.085 -0.046,0.095 -0.043,0.129 0.003,0.028 0.104,0.09 0.16,0.125 0.013,0.008 0.023,0.015 0.03,0.019 0.005,0.004 0.015,0.01 0.027,0.017 0.061,0.037 0.188,0.114 0.188,0.16 0,0.055 -0.176,0.2 -0.231,0.236 -0.056,0.036 -0.206,0.114 -0.27,0.126 -0.064,0.012 -0.165,-0.06 -0.223,-0.169 -0.055,-0.102 -0.012,-0.203 0.023,-0.284l0.007 -0.016c0.032,-0.075 -0.014,-0.12 -0.044,-0.151 -0.004,-0.004 -0.007,-0.007 -0.01,-0.01l-0.307 -0.326c-0.009,-0.01 -0.018,-0.019 -0.027,-0.027 -0.042,-0.04 -0.077,-0.075 -0.077,-0.162 0,-0.106 0.41,-0.601 0.41,-0.601 0,0 0.346,0.066 0.392,0.066 0.038,0 0.109,-0.024 0.184,-0.05 0.019,-0.007 0.038,-0.013 0.057,-0.02 0.094,-0.031 0.156,-0.031 0.156,-0.031 0,0 0.062,0 0.155,0.031 0.019,0.007 0.038,0.013 0.057,0.02 0.075,0.026 0.147,0.05 0.184,0.05l0 0 0 0 0 0zm-0.06 1.751c0.073,0.037 0.125,0.064 0.145,0.076 0.025,0.016 0.01,0.046 -0.013,0.062 -0.023,0.017 -0.334,0.257 -0.364,0.283l-0.012 0.011c-0.029,0.026 -0.066,0.06 -0.093,0.06 -0.026,0 -0.063,-0.034 -0.092,-0.06l-0.012 -0.011c-0.03,-0.026 -0.341,-0.266 -0.364,-0.283 -0.023,-0.016 -0.038,-0.046 -0.013,-0.062 0.02,-0.012 0.071,-0.039 0.145,-0.077 0.021,-0.011 0.044,-0.023 0.069,-0.035 0.11,-0.057 0.246,-0.105 0.267,-0.105 0.022,0 0.158,0.048 0.268,0.105l0.07 0.035 0 0 -0.001 0.001z"/>
   <path class="fil3" d="M5.077 2.259l-0.319 -0.361 -1.119 0 -0.319 0.361c0,0 -0.28,-0.078 -0.412,0.054 0,0 0.373,-0.033 0.502,0.175 0,0 0.345,0.066 0.392,0.066 0.047,0 0.148,-0.039 0.241,-0.07 0.093,-0.031 0.155,-0.031 0.155,-0.031 0,0 0.063,0 0.156,0.031 0.093,0.031 0.194,0.07 0.241,0.07 0.046,0 0.392,-0.066 0.392,-0.066 0.128,-0.208 0.501,-0.175 0.501,-0.175 -0.132,-0.131 -0.411,-0.054 -0.411,-0.054l0 0 0 0 0 0z"/>
  </g>
 </g>
</svg>
