<?xml version="1.0" encoding="UTF-8"?>
<!DOCTYPE svg PUBLIC "-//W3C//DTD SVG 1.1//EN" "http://www.w3.org/Graphics/SVG/1.1/DTD/svg11.dtd">
<!-- Creator: CorelDRAW -->
<svg xmlns="http://www.w3.org/2000/svg" xml:space="preserve" width="123px" height="109px" version="1.1" style="shape-rendering:geometricPrecision; text-rendering:geometricPrecision; image-rendering:optimizeQuality; fill-rule:evenodd; clip-rule:evenodd"
viewBox="0 0 29.087 25.767"
 xmlns:xlink="http://www.w3.org/1999/xlink"
 xmlns:xodm="http://www.corel.com/coreldraw/odm/2003">
 <defs>
  <style type="text/css">
   <![CDATA[
    .fil0 {fill:none}
    .fil4 {fill:#2D4F8E;fill-rule:nonzero}
    .fil8 {fill:#43A244;fill-rule:nonzero}
    .fil7 {fill:#65BC46;fill-rule:nonzero}
    .fil2 {fill:#D5D7D8;fill-rule:nonzero}
    .fil1 {fill:#DE5833;fill-rule:nonzero}
    .fil6 {fill:#FDD209;fill-rule:nonzero}
    .fil3 {fill:white;fill-rule:nonzero}
    .fil5 {fill:url(#id0);fill-rule:nonzero}
   ]]>
  </style>
  <linearGradient id="id0" gradientUnits="userSpaceOnUse" x1="14.821" y1="10.586" x2="12.247" y2="10.586">
   <stop offset="0" style="stop-opacity:1; stop-color:#394A9F"/>
   <stop offset="1" style="stop-opacity:1; stop-color:#6176B9"/>
  </linearGradient>
 </defs>
 <g id="Layer_x0020_1">
  <metadata id="CorelCorpID_0Corel-Layer"/>
  <rect class="fil0" width="29.087" height="25.767"/>
  <g id="_2731003026576">
   <path class="fil1" d="M14.543 7.548c2.947,0 5.336,2.389 5.336,5.335 0,2.947 -2.389,5.336 -5.336,5.336 -2.946,0 -5.335,-2.389 -5.335,-5.336 0,-2.946 2.389,-5.335 5.335,-5.335z"/>
   <path class="fil1" d="M14.543 19.142c3.457,0 6.259,-2.802 6.259,-6.259 0,-3.456 -2.802,-6.258 -6.259,-6.258 -3.456,0 -6.258,2.802 -6.258,6.258 0,3.457 2.802,6.259 6.258,6.259zm0 -0.522c-3.168,0 -5.736,-2.568 -5.736,-5.736 0,-3.168 2.568,-5.737 5.736,-5.737 3.169,0 5.737,2.569 5.737,5.737 0,3.168 -2.568,5.736 -5.737,5.736z"/>
   <g>
    <path class="fil2" d="M11.945 9.281c-0.001,-0.089 0.064,-0.139 0.15,-0.175 -0.04,0.007 -0.077,0.017 -0.112,0.032 -0.09,0.041 -0.157,0.196 -0.157,0.269 0.438,-0.044 1.086,-0.014 1.56,0.128 0.035,-0.005 0.07,-0.01 0.106,-0.014 -0.473,-0.21 -1.035,-0.291 -1.548,-0.24l0.001 0zm0.089 -0.539c0.01,-0.002 0.02,-0.003 0.03,-0.005 -0.095,0.012 -0.144,0.046 -0.215,0.057 0.077,0.007 0.369,0.144 0.552,0.219 0.026,-0.01 0.049,-0.021 0.068,-0.034 -0.095,-0.014 -0.332,-0.228 -0.435,-0.237l0 0zm0.456 1.061c-0.026,0.01 -0.051,0.021 -0.073,0.032 -0.714,0.376 -1.03,1.256 -0.842,2.309 0.172,0.958 0.875,4.233 1.197,5.773 0.095,0.033 0.19,0.064 0.286,0.092 -0.287,-1.387 -1.07,-5.021 -1.252,-6.041 -0.186,-1.039 -0.006,-1.784 0.684,-2.165l0 0zm0 0l0 0 0 0z"/>
   </g>
   <path class="fil3" d="M15.38 17.359c-0.012,0.008 -0.025,0.015 -0.04,0.023 -0.012,0.042 -0.029,0.075 -0.053,0.092 -0.148,0.097 -0.564,0.147 -0.784,0.097 -0.038,-0.008 -0.067,-0.022 -0.089,-0.041 -0.376,0.209 -0.916,0.486 -1.026,0.424 -0.171,-0.099 -0.196,-1.397 -0.171,-1.716 0.018,-0.241 0.863,0.149 1.274,0.353 0.091,-0.085 0.314,-0.142 0.511,-0.161 -0.298,-0.724 -0.517,-1.554 -0.382,-2.142 -0.187,-0.129 -0.433,-0.43 -0.382,-0.744 0.04,-0.239 0.657,-0.691 1.094,-0.719 0.438,-0.027 0.575,-0.021 0.94,-0.108l0.06 -0.015c0.224,-0.79 -0.314,-2.164 -0.916,-2.765 -0.196,-0.196 -0.497,-0.32 -0.837,-0.385 -0.13,-0.179 -0.341,-0.35 -0.639,-0.509 -0.554,-0.294 -1.238,-0.414 -1.875,-0.305 -0.01,0.001 -0.02,0.003 -0.03,0.004 0.103,0.01 0.339,0.223 0.435,0.238 -0.019,0.012 -0.042,0.023 -0.068,0.033 -0.09,0.034 -0.211,0.055 -0.306,0.094 -0.087,0.035 -0.152,0.085 -0.151,0.175 0.513,-0.051 1.075,0.029 1.547,0.239 -0.035,0.004 -0.07,0.009 -0.105,0.014 -0.335,0.047 -0.643,0.134 -0.866,0.252 -0.01,0.005 -0.02,0.011 -0.03,0.016 -0.69,0.381 -0.87,1.127 -0.685,2.165 0.182,1.02 0.97,4.71 1.257,6.097 0.472,0.137 0.913,0.246 1.428,0.246 0.438,0 0.964,-0.097 1.372,-0.197 -0.143,-0.275 -0.327,-0.58 -0.441,-0.799 -0.015,0.018 -0.027,0.034 -0.041,0.044l-0.001 0zm0.289 -5.233c-0.187,0 -0.34,-0.152 -0.34,-0.34 0,-0.187 0.153,-0.339 0.34,-0.339 0.188,0 0.339,0.152 0.339,0.339 0,0 0,0.001 0,0.001 0,0.187 -0.152,0.339 -0.339,0.339 0,0 -0.001,0 -0.001,0l0.001 0zm0.204 -1.277c0,0 -0.214,-0.122 -0.38,-0.12 -0.341,0.004 -0.434,0.155 -0.434,0.155 0,0 0.057,-0.359 0.493,-0.287 0.237,0.039 0.321,0.252 0.321,0.252l0 0zm-3.597 0.442c0,0 -0.154,-0.343 0.255,-0.511 0.41,-0.167 0.61,0.096 0.61,0.096 0,0 -0.298,-0.135 -0.587,0.047 -0.289,0.182 -0.278,0.368 -0.278,0.368zm0.358 0.73c0,0 0,-0.001 0,-0.001 0,-0.218 0.177,-0.394 0.395,-0.394 0,0 0,0 0,0 0,-0.001 0,-0.001 0,-0.001 0.218,0 0.395,0.177 0.395,0.395 0,0 0,0 0,0.001 0,0.218 -0.177,0.395 -0.395,0.395 0,0 0,0 -0.001,0 -0.218,0 -0.394,-0.177 -0.394,-0.395 0,0 0,0 0,0z"/>
   <path class="fil4" d="M13.424 12.021c0,-0.001 0,-0.001 0,-0.001 0,-0.218 -0.177,-0.395 -0.395,-0.395 0,0 0,0 0,0 0,0.001 0,0.001 0,0.001 -0.218,0 -0.395,0.176 -0.395,0.394 0,0 0,0.001 0,0.001 0,0 0,0 0,0 0,0.218 0.176,0.395 0.394,0.395 0.001,0 0.001,0 0.001,0 0.218,0 0.395,-0.177 0.395,-0.395l0 0zm-0.22 -0.03c-0.056,0 -0.102,-0.046 -0.102,-0.102 0,0 0,0 0,0 0,-0.057 0.046,-0.103 0.102,-0.103 0.057,0 0.103,0.046 0.103,0.103 0,0.056 -0.046,0.102 -0.103,0.102l0 0z"/>
   <path class="fil3" d="M13.204 11.786c-0.056,0 -0.102,0.046 -0.102,0.103 0,0 0,0 0,0 0,0.057 0.046,0.103 0.102,0.103 0.057,-0.001 0.103,-0.047 0.103,-0.103 -0.001,0 -0.001,0 -0.001,0 0,-0.057 -0.045,-0.103 -0.102,-0.103 0,0 0,0 0,0z"/>
   <path class="fil4" d="M15.669 11.447c-0.187,0 -0.34,0.152 -0.34,0.339 0,0.188 0.153,0.34 0.34,0.34 -0.001,0 0,0 0,0 0.187,0 0.339,-0.152 0.339,-0.339 0,0 0,-0.001 0,-0.001 0,-0.187 -0.152,-0.339 -0.34,-0.339l0.001 0zm0.15 0.314c-0.048,0 -0.087,-0.039 -0.087,-0.088 0,-0.048 0.039,-0.088 0.087,-0.088 0.05,0 0.088,0.04 0.088,0.088 0,0.049 -0.038,0.088 -0.088,0.088z"/>
   <path class="fil3" d="M15.819 11.585c-0.048,0 -0.087,0.04 -0.087,0.088 0,0.049 0.039,0.088 0.087,0.088 0.001,0 0.001,0 0.001,0 0.048,0 0.087,-0.039 0.087,-0.087 0,0 0,0 0,-0.001 0,-0.048 -0.038,-0.088 -0.088,-0.088z"/>
   <path class="fil5" d="M13.141 10.876c0,0 -0.2,-0.263 -0.61,-0.096 -0.409,0.168 -0.255,0.511 -0.255,0.511 0,0 -0.011,-0.186 0.278,-0.368 0.289,-0.182 0.587,-0.047 0.587,-0.047m2.411 -0.279c-0.436,-0.073 -0.493,0.287 -0.493,0.287 0,0 0.093,-0.151 0.434,-0.156 0.166,-0.002 0.38,0.121 0.38,0.121 0,0 -0.084,-0.213 -0.321,-0.253m0 0.001l0 0 0 0z"/>
   <path class="fil6" d="M15.332 12.825c-0.437,0.028 -1.055,0.48 -1.094,0.719 -0.052,0.314 0.195,0.614 0.381,0.744l0.001 0.001c0.186,0.13 1.425,0.548 2.04,0.536 0.615,-0.012 1.626,-0.389 1.515,-0.691 -0.11,-0.302 -1.114,0.267 -2.161,0.17 -0.775,-0.072 -0.912,-0.42 -0.74,-0.673 0.215,-0.319 0.609,0.061 1.258,-0.134 0.649,-0.193 1.558,-0.54 1.895,-0.729 0.78,-0.434 -0.326,-0.614 -0.587,-0.494 -0.248,0.115 -1.11,0.332 -1.509,0.428l-0.059 0.015c-0.365,0.087 -0.502,0.081 -0.94,0.108z"/>
   <g>
    <path class="fil7" d="M14.355 16.787c0,-0.045 0.037,-0.085 0.094,-0.12 0.002,-0.027 0.017,-0.052 0.042,-0.076 -0.411,-0.204 -1.256,-0.594 -1.275,-0.353 -0.024,0.319 0,1.617 0.172,1.716 0.11,0.062 0.65,-0.215 1.025,-0.424 -0.108,-0.092 -0.058,-0.316 -0.058,-0.743l0 0zm1.062 0.526l0.005 0.002c0.337,0.13 1.007,0.375 1.152,0.321 0.196,-0.075 0.147,-1.643 -0.073,-1.692 -0.176,-0.039 -0.851,0.436 -1.117,0.63 0.047,0.199 0.104,0.592 0.033,0.739z"/>
   </g>
   <path class="fil8" d="M14.596 17.457c-0.22,-0.049 -0.147,-0.27 -0.147,-0.784 0,-0.002 0.001,-0.003 0.001,-0.005 -0.058,0.034 -0.094,0.074 -0.094,0.119 0,0.427 -0.051,0.651 0.058,0.743 0.022,0.019 0.051,0.033 0.089,0.041 0.22,0.05 0.636,0 0.784,-0.097 0.025,-0.017 0.042,-0.05 0.053,-0.092 -0.173,0.082 -0.542,0.121 -0.744,0.075z"/>
   <g>
    <path class="fil7" d="M14.491 16.591c-0.025,0.024 -0.04,0.049 -0.042,0.076 0,0.002 0,0.004 0,0.005 0,0.515 -0.074,0.736 0.147,0.785 0.202,0.046 0.571,0.007 0.743,-0.076 0.015,-0.007 0.029,-0.014 0.041,-0.022 0.015,-0.01 0.027,-0.026 0.036,-0.046 0.071,-0.148 0.015,-0.541 -0.032,-0.739 -0.011,-0.044 -0.021,-0.078 -0.029,-0.099 -0.02,-0.05 -0.176,-0.063 -0.353,-0.045 -0.197,0.019 -0.42,0.076 -0.511,0.161l0 0zm0 0l0 0 0 0z"/>
   </g>
  </g>
 </g>
</svg>
