<?xml version="1.0" encoding="UTF-8"?>
<!DOCTYPE svg PUBLIC "-//W3C//DTD SVG 1.1//EN" "http://www.w3.org/Graphics/SVG/1.1/DTD/svg11.dtd">
<!-- Creator: CorelDRAW -->
<svg xmlns="http://www.w3.org/2000/svg" xml:space="preserve" width="124px" height="110px" version="1.1" style="shape-rendering:geometricPrecision; text-rendering:geometricPrecision; image-rendering:optimizeQuality; fill-rule:evenodd; clip-rule:evenodd"
viewBox="0 0 27.392 24.259"
 xmlns:xlink="http://www.w3.org/1999/xlink"
 xmlns:xodm="http://www.corel.com/coreldraw/odm/2003">
 <defs>
  <style type="text/css">
   <![CDATA[
    .fil2 {fill:none}
    .fil0 {fill:#6573FF}
    .fil1 {fill:#666666}
   ]]>
  </style>
 </defs>
 <g id="Layer_x0020_1">
  <metadata id="CorelCorpID_0Corel-Layer"/>
  <g id="_2617510874320">
   <path class="fil0" d="M8.904 18.068c0.048,-0.198 0.129,-0.328 0.238,-0.376 1.532,-0.708 3.09,-1.073 4.643,-1.073 1.527,0 3.053,0.355 4.558,1.036 0.084,0.041 0.136,0.11 0.165,0.189 0.024,0.069 0.035,0.159 0.027,0.287 -0.007,0.109 -0.024,0.179 -0.052,0.219 -0.035,0.048 -0.091,0.069 -0.175,0.039 -1.134,-0.39 -2.284,-0.595 -3.428,-0.595 -1.888,0 -3.779,0.545 -5.625,1.606 -0.028,0.011 -0.056,0.021 -0.081,0.021l-0.026 -0.005c-0.055,-0.005 -0.109,-0.053 -0.157,-0.139 -0.069,-0.129 -0.115,-0.337 -0.133,-0.575 -0.01,-0.237 0.004,-0.464 0.046,-0.634l0 0 0 0z"/>
   <path class="fil1" d="M16.461 11.732c-0.258,-0.198 -0.583,-0.377 -0.988,-0.536 -0.395,-0.159 -0.869,-0.287 -1.411,-0.407 -0.464,-0.108 -0.829,-0.207 -1.096,-0.316 -0.267,-0.099 -0.454,-0.218 -0.573,-0.347 -0.119,-0.129 -0.167,-0.288 -0.167,-0.476 0,-0.347 0.147,-0.615 0.444,-0.813 0.296,-0.198 0.69,-0.297 1.184,-0.297 0.444,0 0.869,0.069 1.294,0.218 0.424,0.149 0.829,0.377 1.223,0.673l0.612 -1.377c-0.248,-0.225 -0.531,-0.405 -0.838,-0.536 -0.337,-0.148 -0.702,-0.257 -1.096,-0.347 -0.396,-0.078 -0.8,-0.118 -1.204,-0.118 -0.003,0 -0.008,0 -0.01,0 -0.691,0 -1.294,0.118 -1.816,0.356 -0.513,0.238 -0.918,0.566 -1.215,0.972 -0.282,0.401 -0.434,0.881 -0.434,1.373 0,0.005 0,0.01 0,0.015 0,0.356 0.059,0.674 0.168,0.952 0.119,0.277 0.296,0.515 0.543,0.713 0.246,0.208 0.572,0.387 0.967,0.535 0.395,0.159 0.879,0.288 1.441,0.407 0.444,0.099 0.809,0.199 1.076,0.298 0.267,0.098 0.465,0.208 0.583,0.347 0.118,0.128 0.187,0.287 0.187,0.475 0,0.318 -0.148,0.566 -0.443,0.743 -0.297,0.179 -0.721,0.269 -1.274,0.269 -0.514,0 -0.998,-0.07 -1.462,-0.218 -0.463,-0.149 -0.907,-0.378 -1.342,-0.674l-0.622 1.376c0.266,0.209 0.583,0.397 0.948,0.546 0.379,0.153 0.774,0.271 1.175,0.346 0.414,0.08 0.848,0.12 1.283,0.12 0.76,0 1.401,-0.109 1.944,-0.328 0.533,-0.218 0.948,-0.525 1.234,-0.921 0.286,-0.397 0.424,-0.873 0.424,-1.418 0,-0.347 -0.06,-0.644 -0.187,-0.912 -0.109,-0.257 -0.297,-0.496 -0.552,-0.694l0 0.001 0 0z"/>
  </g>
  <rect class="fil2" width="27.392" height="24.259"/>
 </g>
</svg>
