<?xml version="1.0" encoding="UTF-8"?>
<!DOCTYPE svg PUBLIC "-//W3C//DTD SVG 1.1//EN" "http://www.w3.org/Graphics/SVG/1.1/DTD/svg11.dtd">
<!-- Creator: CorelDRAW -->
<svg xmlns="http://www.w3.org/2000/svg" xml:space="preserve" width="70px" height="62px" version="1.1" style="shape-rendering:geometricPrecision; text-rendering:geometricPrecision; image-rendering:optimizeQuality; fill-rule:evenodd; clip-rule:evenodd"
viewBox="0 0 59.677 52.857"
 xmlns:xlink="http://www.w3.org/1999/xlink"
 xmlns:xodm="http://www.corel.com/coreldraw/odm/2003">
 <defs>
  <style type="text/css">
   <![CDATA[
    .fil0 {fill:none}
    .fil2 {fill:#0C67D6;fill-rule:nonzero}
    .fil1 {fill:#3086F6;fill-rule:nonzero}
    .fil3 {fill:#FDFFFF;fill-rule:nonzero}
   ]]>
  </style>
 </defs>
 <g id="Layer_x0020_1">
  <metadata id="CorelCorpID_0Corel-Layer"/>
  <rect class="fil0" width="59.677" height="52.857"/>
 </g>
 <g id="__x0023_Layer_x0020_1">
  <metadata id="CorelCorpID_1Corel-Layer"/>
  <g id="_1476655562320">
   <g id="Layer_5">
    <path class="fil1" d="M36.891 38.364l-14.105 0c-0.895,0 -1.628,-0.733 -1.628,-1.628l0 -20.615c0,-0.896 0.733,-1.628 1.628,-1.628l9.765 0 5.968 5.968 0 16.275c0,0.895 -0.732,1.628 -1.628,1.628z"/>
    <polygon class="fil2" points="32.551,14.493 38.519,20.461 32.551,20.461 "/>
    <path class="fil3" d="M34.721 25.072l-9.765 0 0 -1.356 9.765 0 0 1.356zm0 1.899l-9.765 0 0 1.356 9.765 0 0 -1.356zm-2.712 3.255l-7.053 0 0 1.356 7.053 0 0 -1.356z"/>
   </g>
  </g>
 </g>
</svg>
