<?xml version="1.0" encoding="UTF-8"?>
<!DOCTYPE svg PUBLIC "-//W3C//DTD SVG 1.1//EN" "http://www.w3.org/Graphics/SVG/1.1/DTD/svg11.dtd">
<!-- Creator: CorelDRAW -->
<svg xmlns="http://www.w3.org/2000/svg" xml:space="preserve" width="70px" height="62px" version="1.1" style="shape-rendering:geometricPrecision; text-rendering:geometricPrecision; image-rendering:optimizeQuality; fill-rule:evenodd; clip-rule:evenodd"
viewBox="0 0 19.615 17.373"
 xmlns:xlink="http://www.w3.org/1999/xlink"
 xmlns:xodm="http://www.corel.com/coreldraw/odm/2003">
 <defs>
  <style type="text/css">
   <![CDATA[
    .fil0 {fill:none}
    .fil1 {fill:#0066DA;fill-rule:nonzero}
    .fil4 {fill:#00832D;fill-rule:nonzero}
    .fil2 {fill:#00AC47;fill-rule:nonzero}
    .fil5 {fill:#2684FC;fill-rule:nonzero}
    .fil3 {fill:#EA4335;fill-rule:nonzero}
    .fil6 {fill:#FFBA00;fill-rule:nonzero}
   ]]>
  </style>
 </defs>
 <g id="Layer_x0020_1">
  <metadata id="CorelCorpID_0Corel-Layer"/>
  <rect class="fil0" width="19.615" height="17.373"/>
 </g>
 <g id="__x0023_Layer_x0020_1">
  <metadata id="CorelCorpID_1Corel-Layer"/>
  <g id="_1476680483360">
   <path class="fil1" d="M6.478 11.19l0.346 0.597c0.072,0.126 0.175,0.225 0.296,0.297l1.236 -2.139 -2.471 0c0,0.139 0.035,0.279 0.107,0.404l0.486 0.841z"/>
   <path class="fil2" d="M9.808 7.428l-1.236 -2.139c-0.122,0.072 -0.225,0.171 -0.297,0.297l-2.283 3.954c-0.07,0.123 -0.107,0.263 -0.107,0.405l2.471 0 1.452 -2.517z"/>
   <path class="fil3" d="M12.495 12.084c0.121,-0.072 0.224,-0.171 0.296,-0.297l0.144 -0.247 0.688 -1.191c0.072,-0.125 0.107,-0.265 0.107,-0.404l-2.471 0 0.526 1.033 0.71 1.106z"/>
   <path class="fil4" d="M9.808 7.428l1.235 -2.139c-0.121,-0.072 -0.26,-0.108 -0.404,-0.108l-1.663 0c-0.144,0 -0.283,0.041 -0.404,0.108l1.236 2.139z"/>
   <path class="fil5" d="M11.259 9.945l-2.903 0 -1.236 2.139c0.122,0.072 0.261,0.108 0.405,0.108l4.565 0c0.144,0 0.283,-0.041 0.405,-0.108l-1.236 -2.139z"/>
   <path class="fil6" d="M12.481 7.563l-1.141 -1.977c-0.072,-0.126 -0.175,-0.225 -0.297,-0.297l-1.235 2.139 1.451 2.517 2.467 0c0,-0.139 -0.036,-0.279 -0.108,-0.405l-1.137 -1.977z"/>
  </g>
 </g>
</svg>
