<?xml version="1.0" encoding="UTF-8"?>
<!DOCTYPE svg PUBLIC "-//W3C//DTD SVG 1.1//EN" "http://www.w3.org/Graphics/SVG/1.1/DTD/svg11.dtd">
<!-- Creator: CorelDRAW -->
<svg xmlns="http://www.w3.org/2000/svg" xml:space="preserve" width="70px" height="62px" version="1.1" style="shape-rendering:geometricPrecision; text-rendering:geometricPrecision; image-rendering:optimizeQuality; fill-rule:evenodd; clip-rule:evenodd"
viewBox="0 0 11.801 10.453"
 xmlns:xlink="http://www.w3.org/1999/xlink"
 xmlns:xodm="http://www.corel.com/coreldraw/odm/2003">
 <defs>
  <style type="text/css">
   <![CDATA[
    .fil0 {fill:none}
    .fil5 {fill:none;fill-rule:nonzero}
    .fil2 {fill:#34A853;fill-rule:nonzero}
    .fil1 {fill:#4285F4;fill-rule:nonzero}
    .fil4 {fill:#EA4335;fill-rule:nonzero}
    .fil3 {fill:#FBBC05;fill-rule:nonzero}
   ]]>
  </style>
 </defs>
 <g id="Layer_x0020_1">
  <metadata id="CorelCorpID_0Corel-Layer"/>
  <rect class="fil0" width="11.801" height="10.453"/>
 </g>
 <g id="__x0023_Layer_x0020_1">
  <metadata id="CorelCorpID_1Corel-Layer"/>
  <g id="_1476683111424">
   <path class="fil1" d="M8.167 5.28c0,-0.168 -0.016,-0.328 -0.043,-0.483l-2.223 0 0 0.914 1.27 0c-0.056,0.294 -0.223,0.543 -0.474,0.71l0 0.595 0.766 0c0.446,-0.412 0.704,-1.017 0.704,-1.736z"/>
   <path class="fil2" d="M5.901 7.586c0.637,0 1.171,-0.21 1.562,-0.57l-0.766 -0.595c-0.211,0.142 -0.479,0.228 -0.796,0.228 -0.614,0 -1.135,-0.414 -1.322,-0.972l-0.785 0 0 0.609c0.388,0.77 1.184,1.3 2.107,1.3z"/>
   <path class="fil3" d="M4.579 5.675c-0.047,-0.142 -0.075,-0.292 -0.075,-0.449 0,-0.156 0.028,-0.307 0.075,-0.448l0 -0.61 -0.785 0c-0.161,0.318 -0.254,0.676 -0.254,1.058 0,0.382 0.093,0.74 0.254,1.058l0.611 -0.476 0.174 -0.133z"/>
   <path class="fil4" d="M5.901 3.806c0.347,0 0.656,0.12 0.903,0.352l0.676 -0.676c-0.41,-0.382 -0.942,-0.616 -1.579,-0.616 -0.923,0 -1.719,0.53 -2.107,1.302l0.785 0.61c0.187,-0.558 0.708,-0.972 1.322,-0.972l0 0z"/>
   <polygon class="fil5" points="3.54,2.866 8.261,2.866 8.261,7.586 3.54,7.586 "/>
  </g>
 </g>
</svg>
