<?xml version="1.0" encoding="UTF-8"?>
<!DOCTYPE svg PUBLIC "-//W3C//DTD SVG 1.1//EN" "http://www.w3.org/Graphics/SVG/1.1/DTD/svg11.dtd">
<!-- Creator: CorelDRAW -->
<svg xmlns="http://www.w3.org/2000/svg" xml:space="preserve" width="70px" height="62px" version="1.1" style="shape-rendering:geometricPrecision; text-rendering:geometricPrecision; image-rendering:optimizeQuality; fill-rule:evenodd; clip-rule:evenodd"
viewBox="0 0 19.523 17.292"
 xmlns:xlink="http://www.w3.org/1999/xlink"
 xmlns:xodm="http://www.corel.com/coreldraw/odm/2003"
 data-name="Layer 1">
 <defs>
  <style type="text/css">
   <![CDATA[
    .fil0 {fill:none}
    .fil4 {fill:#1A73E8;fill-rule:nonzero}
    .fil1 {fill:#34A853;fill-rule:nonzero}
    .fil3 {fill:#4285F4;fill-rule:nonzero}
    .fil5 {fill:#EA4335;fill-rule:nonzero}
    .fil2 {fill:#FBBC04;fill-rule:nonzero}
   ]]>
  </style>
 </defs>
 <g id="Layer_x0020_1">
  <metadata id="CorelCorpID_0Corel-Layer"/>
  <rect class="fil0" width="19.523" height="17.292"/>
 </g>
 <g id="__x0023_Layer_x0020_1">
  <metadata id="CorelCorpID_1Corel-Layer"/>
  <g id="_1475568275440">
   <path class="fil1" d="M8.539 10.526c0.241,0.302 0.486,0.68 0.615,0.909 0.156,0.298 0.221,0.499 0.337,0.858 0.068,0.198 0.133,0.257 0.269,0.257 0.149,0 0.217,-0.1 0.269,-0.257 0.109,-0.337 0.193,-0.594 0.326,-0.839 0.512,-0.966 1.347,-1.653 1.818,-2.593 0,0 0.309,-0.575 0.309,-1.38 0,-0.75 -0.305,-1.271 -0.305,-1.271l-3.636 4.323 -0.002 -0.007z"/>
   <path class="fil2" d="M7.306 8.759c0.293,0.667 0.851,1.252 1.233,1.767l2.022 -2.396c0,0 -0.286,0.373 -0.801,0.373 -0.575,0 -1.043,-0.457 -1.043,-1.036 0,-0.398 0.237,-0.674 0.237,-0.674 -1.487,0.222 -1.405,0.582 -1.653,1.965l0.005 0.001z"/>
   <path class="fil3" d="M10.586 4.866c0.674,0.217 1.246,0.674 1.589,1.342l-1.614 1.926c0,0 0.237,-0.277 0.237,-0.674 0,-0.59 -0.499,-1.036 -1.037,-1.036 -0.51,0 -0.801,0.369 -0.801,0.369 0.124,-0.282 1.405,-1.831 1.628,-1.926l-0.002 -0.001z"/>
   <path class="fil4" d="M7.674 5.714c0.402,-0.478 1.106,-0.973 2.079,-0.973 0.47,0 0.827,0.125 0.827,0.125l-1.621 1.926c-0.11,-0.059 -1.177,-0.89 -1.285,-1.081l0 0.003z"/>
   <path class="fil5" d="M7.306 8.759c0,0 -0.265,-0.526 -0.265,-1.284 0,-0.719 0.281,-1.348 0.635,-1.755l1.284 1.081 -1.652 1.958 -0.002 0z"/>
  </g>
 </g>
</svg>
