<?xml version="1.0" encoding="UTF-8"?>
<!DOCTYPE svg PUBLIC "-//W3C//DTD SVG 1.1//EN" "http://www.w3.org/Graphics/SVG/1.1/DTD/svg11.dtd">
<!-- Creator: CorelDRAW -->
<svg xmlns="http://www.w3.org/2000/svg" xml:space="preserve" width="70px" height="62px" version="1.1" style="shape-rendering:geometricPrecision; text-rendering:geometricPrecision; image-rendering:optimizeQuality; fill-rule:evenodd; clip-rule:evenodd"
viewBox="0 0 11.842 10.489"
 xmlns:xlink="http://www.w3.org/1999/xlink"
 xmlns:xodm="http://www.corel.com/coreldraw/odm/2003">
 <defs>
  <style type="text/css">
   <![CDATA[
    .fil0 {fill:none}
    .fil6 {fill:#C43E1C;fill-rule:nonzero}
    .fil3 {fill:#D35230;fill-rule:nonzero}
    .fil1 {fill:#ED6C47;fill-rule:nonzero}
    .fil2 {fill:#FF8F6B;fill-rule:nonzero}
    .fil7 {fill:white;fill-rule:nonzero}
    .fil5 {fill:black;fill-rule:nonzero;fill-opacity:0.101961}
    .fil4 {fill:black;fill-rule:nonzero;fill-opacity:0.501961}
   ]]>
  </style>
 </defs>
 <g id="Layer_x0020_1">
  <metadata id="CorelCorpID_0Corel-Layer"/>
  <rect class="fil0" width="11.842" height="10.489"/>
 </g>
 <g id="__x0023_Layer_x0020_1">
  <metadata id="CorelCorpID_1Corel-Layer"/>
  <g id="_1476734972880">
   <g id="Powerpoint">
    <rect class="fil0" x="3.553" y="2.876" width="4.737" height="4.737"/>
    <path class="fil1" d="M6.118 3.073c-1.198,0 -2.171,0.972 -2.171,2.171l2.929 0.758 -0.758 -2.929z"/>
    <path class="fil2" d="M6.118 3.073c1.199,0 2.171,0.972 2.171,2.171l-1.085 0.592 -1.086 -0.592 0 -2.171z"/>
    <path class="fil3" d="M3.947 5.244c0,1.199 0.973,2.171 2.171,2.171 1.199,0 2.171,-0.972 2.171,-2.171l-4.342 0z"/>
    <path class="fil4" d="M6.513 6.557l0 -2.266c-0.001,-0.127 -0.104,-0.23 -0.231,-0.231l-1.979 0c-0.232,0.351 -0.356,0.764 -0.356,1.185 0,0.598 0.25,1.171 0.689,1.578l1.601 0c0.145,-0.009 0.262,-0.122 0.276,-0.266l0 0z"/>
    <path class="fil5" d="M6.513 6.557l0 -2.266c-0.001,-0.127 -0.104,-0.23 -0.231,-0.231l-1.979 0c-0.232,0.351 -0.356,0.764 -0.356,1.185 0,0.598 0.25,1.171 0.689,1.578l1.601 0c0.145,-0.009 0.262,-0.122 0.276,-0.266l0 0z"/>
    <path class="fil6" d="M3.783 3.863l2.302 0c0.127,0 0.231,0.103 0.231,0.231l0 2.301c0,0.127 -0.104,0.231 -0.231,0.231l-2.302 0c-0.127,0 -0.23,-0.104 -0.23,-0.231l0 -2.301c0,-0.128 0.103,-0.231 0.231,-0.231z" data-name="Back Plate"/>
    <path class="fil7" d="M5.013 4.455c0.015,-0.001 0.03,-0.002 0.045,-0.002 0.14,0 0.277,0.045 0.389,0.128 0.096,0.087 0.151,0.21 0.151,0.34 0,0.009 0,0.018 -0.001,0.027 0,0.005 0.001,0.011 0.001,0.016 0,0.105 -0.025,0.208 -0.072,0.302 -0.049,0.085 -0.123,0.154 -0.211,0.197 -0.096,0.044 -0.2,0.067 -0.306,0.067 -0.004,0 -0.008,0 -0.012,0l-0.304 0 0 0.504 -0.308 0 0 -1.579 0.628 0zm-0.32 0.789l0.265 0c0.008,0.001 0.016,0.001 0.024,0.001 0.076,0 0.15,-0.024 0.211,-0.07 0.051,-0.053 0.079,-0.125 0.079,-0.199 0,-0.006 0,-0.012 0,-0.018 0,-0.174 -0.101,-0.261 -0.304,-0.261l-0.275 0.001 0 0.546z"/>
   </g>
  </g>
 </g>
</svg>
