<?xml version="1.0" encoding="UTF-8"?>
<!DOCTYPE svg PUBLIC "-//W3C//DTD SVG 1.1//EN" "http://www.w3.org/Graphics/SVG/1.1/DTD/svg11.dtd">
<!-- Creator: CorelDRAW -->
<svg xmlns="http://www.w3.org/2000/svg" xml:space="preserve" width="52px" height="47px" version="1.1" style="shape-rendering:geometricPrecision; text-rendering:geometricPrecision; image-rendering:optimizeQuality; fill-rule:evenodd; clip-rule:evenodd"
viewBox="0 0 7.818 6.924"
 xmlns:xlink="http://www.w3.org/1999/xlink"
 xmlns:xodm="http://www.corel.com/coreldraw/odm/2003">
 <defs>
  <style type="text/css">
   <![CDATA[
    .fil0 {fill:none}
    .fil1 {fill:#195ABD;fill-rule:nonzero}
    .fil2 {fill:url(#id0);fill-rule:nonzero}
   ]]>
  </style>
  <linearGradient id="id0" gradientUnits="userSpaceOnUse" x1="5.016" y1="5.466" x2="7.349" y2="3.133">
   <stop offset="0" style="stop-opacity:1; stop-color:#2987E6"/>
   <stop offset="0.988235" style="stop-opacity:1; stop-color:#58C1F5"/>
   <stop offset="1" style="stop-opacity:1; stop-color:#58C1F5"/>
  </linearGradient>
 </defs>
 <g id="Layer_x0020_1">
  <metadata id="CorelCorpID_0Corel-Layer"/>
  <rect class="fil0" width="7.818" height="6.924"/>
  <g id="_1897570461568">
   <path class="fil1" d="M2.06 3.346l0.554 -0.554c0.064,-0.064 0.168,-0.064 0.232,0l1.34 1.34c0.064,0.064 0.064,0.168 0,0.232l-0.554 0.554c-0.064,0.064 -0.168,0.064 -0.232,0l-1.34 -1.34c-0.064,-0.064 -0.064,-0.168 0,-0.232z"/>
   <path class="fil2" d="M5.204 2.006l0.554 0.554c0.064,0.064 0.064,0.168 0,0.232l-2.126 2.126c-0.064,0.064 -0.168,0.064 -0.232,0l-0.554 -0.554c-0.064,-0.064 -0.064,-0.168 0,-0.232l2.126 -2.126c0.064,-0.064 0.168,-0.064 0.232,0z"/>
  </g>
 </g>
</svg>
