<?xml version="1.0" encoding="UTF-8"?>
<!DOCTYPE svg PUBLIC "-//W3C//DTD SVG 1.1//EN" "http://www.w3.org/Graphics/SVG/1.1/DTD/svg11.dtd">
<!-- Creator: CorelDRAW -->
<svg xmlns="http://www.w3.org/2000/svg" xml:space="preserve" width="70px" height="62px" version="1.1" style="shape-rendering:geometricPrecision; text-rendering:geometricPrecision; image-rendering:optimizeQuality; fill-rule:evenodd; clip-rule:evenodd"
viewBox="0 0 19.615 17.373"
 xmlns:xlink="http://www.w3.org/1999/xlink"
 xmlns:xodm="http://www.corel.com/coreldraw/odm/2003">
 <defs>
  <style type="text/css">
   <![CDATA[
    .fil0 {fill:none}
    .fil3 {fill:#168743}
    .fil4 {fill:#919191}
    .fil1 {fill:url(#id0)}
    .fil2 {fill:url(#id1)}
   ]]>
  </style>
  <linearGradient id="id0" gradientUnits="userSpaceOnUse" x1="8.727" y1="10.49" x2="8.727" y2="5.808">
   <stop offset="0" style="stop-opacity:1; stop-color:#05CD66"/>
   <stop offset="1" style="stop-opacity:1; stop-color:#9EEE69"/>
  </linearGradient>
  <linearGradient id="id1" gradientUnits="userSpaceOnUse" x1="11.374" y1="11.858" x2="11.374" y2="7.932">
   <stop offset="0" style="stop-opacity:1; stop-color:#E4E6E6"/>
   <stop offset="1" style="stop-opacity:1; stop-color:#F0F0F0"/>
  </linearGradient>
 </defs>
 <g id="Layer_x0020_1">
  <metadata id="CorelCorpID_0Corel-Layer"/>
  <rect class="fil0" width="19.615" height="17.373"/>
 </g>
 <g id="__x0023_Layer_x0020_1">
  <metadata id="CorelCorpID_1Corel-Layer"/>
  <g id="_1476735170656">
   <g>
    <path class="fil1" d="M5.885 7.874c0,0.707 0.385,1.354 0.981,1.781 0.053,0.035 0.079,0.088 0.079,0.158 0,0.017 -0.009,0.043 -0.009,0.061 -0.044,0.174 -0.123,0.463 -0.131,0.471 -0.009,0.026 -0.018,0.044 -0.018,0.07 0,0.053 0.044,0.096 0.097,0.096 0.017,0 0.035,-0.009 0.052,-0.017l0.622 -0.358c0.044,-0.026 0.097,-0.044 0.149,-0.044 0.027,0 0.062,0 0.088,0.009 0.289,0.087 0.605,0.131 0.929,0.131 1.569,0 2.84,-1.057 2.84,-2.358 0,-1.301 -1.271,-2.358 -2.84,-2.358 -1.569,0 -2.839,1.057 -2.839,2.358z"/>
    <path class="fil2" d="M11.37 11.619c0.271,0 0.533,-0.035 0.769,-0.105 0.018,-0.009 0.044,-0.009 0.07,-0.009 0.044,0 0.088,0.018 0.123,0.035l0.516 0.299c0.017,0.009 0.026,0.018 0.043,0.018 0.044,0 0.079,-0.035 0.079,-0.079 0,-0.018 -0.009,-0.035 -0.009,-0.062 0,-0.009 -0.07,-0.246 -0.105,-0.396 -0.008,-0.017 -0.008,-0.035 -0.008,-0.053 0,-0.052 0.026,-0.096 0.07,-0.131 0.498,-0.361 0.813,-0.898 0.813,-1.496 0,-1.091 -1.058,-1.98 -2.361,-1.98 -1.303,0 -2.361,0.88 -2.361,1.98 0,1.091 1.058,1.979 2.361,1.979l0 0z"/>
    <g>
     <path class="fil3" d="M8.143 7.113c0,0.203 -0.162,0.365 -0.365,0.365 -0.204,0 -0.365,-0.162 -0.365,-0.365 0,-0.204 0.161,-0.365 0.365,-0.365 0.203,0 0.365,0.161 0.365,0.365l0 0zm1.893 0c0,0.203 -0.162,0.365 -0.365,0.365 -0.204,0 -0.365,-0.162 -0.365,-0.365 0,-0.204 0.161,-0.365 0.365,-0.365 0.203,0 0.365,0.161 0.365,0.365l0 0zm0 0l0 0 0 0z"/>
    </g>
    <g>
     <g>
      <path class="fil4" d="M11.86 9.029c0,0.177 0.142,0.319 0.32,0.319 0.177,0 0.319,-0.142 0.319,-0.319 0,-0.178 -0.142,-0.32 -0.319,-0.32 -0.178,0 -0.32,0.142 -0.32,0.32l0 0zm-1.573 0c0,0.177 0.141,0.319 0.319,0.319 0.177,0 0.319,-0.142 0.319,-0.319 0,-0.178 -0.142,-0.32 -0.319,-0.32 -0.178,0 -0.319,0.142 -0.319,0.32z"/>
     </g>
    </g>
   </g>
  </g>
 </g>
</svg>
