<?xml version="1.0" encoding="UTF-8"?>
<!DOCTYPE svg PUBLIC "-//W3C//DTD SVG 1.1//EN" "http://www.w3.org/Graphics/SVG/1.1/DTD/svg11.dtd">
<!-- Creator: CorelDRAW -->
<svg xmlns="http://www.w3.org/2000/svg" xml:space="preserve" width="124px" height="110px" version="1.1" style="shape-rendering:geometricPrecision; text-rendering:geometricPrecision; image-rendering:optimizeQuality; fill-rule:evenodd; clip-rule:evenodd"
viewBox="0 0 37.818 33.492"
 xmlns:xlink="http://www.w3.org/1999/xlink"
 xmlns:xodm="http://www.corel.com/coreldraw/odm/2003">
 <defs>
  <style type="text/css">
   <![CDATA[
    .fil0 {fill:none}
    .fil1 {fill:#B5B5B5;fill-rule:nonzero}
    .fil3 {fill:url(#id0);fill-rule:nonzero}
    .fil4 {fill:url(#id1);fill-rule:nonzero}
    .fil2 {fill:url(#id2);fill-rule:nonzero}
   ]]>
  </style>
  <linearGradient id="id0" gradientUnits="userSpaceOnUse" x1="27.473" y1="11.449" x2="27.473" y2="20.267">
   <stop offset="0" style="stop-opacity:1; stop-color:#00D77C"/>
   <stop offset="1" style="stop-opacity:1; stop-color:#43DDEB"/>
  </linearGradient>
  <linearGradient id="id1" gradientUnits="userSpaceOnUse" x1="9.837" y1="11.449" x2="9.837" y2="20.267">
   <stop offset="0" style="stop-opacity:1; stop-color:#007AFF"/>
   <stop offset="0.0588235" style="stop-opacity:1; stop-color:#007AFF"/>
   <stop offset="0.890196" style="stop-opacity:1; stop-color:#8D41E5"/>
   <stop offset="1" style="stop-opacity:1; stop-color:#8D41E5"/>
  </linearGradient>
  <linearGradient id="id2" gradientUnits="userSpaceOnUse" x1="16.891" y1="11.449" x2="16.891" y2="20.267">
   <stop offset="0" style="stop-opacity:1; stop-color:#FB00FF"/>
   <stop offset="1" style="stop-opacity:1; stop-color:#FFCC00"/>
  </linearGradient>
 </defs>
 <g id="Layer_x0020_1">
  <metadata id="CorelCorpID_0Corel-Layer"/>
  <rect class="fil0" width="37.818" height="33.492"/>
  <g id="_1807506574544">
   <path class="fil1" d="M32.89 14.228c-0.11,0 -0.216,0.032 -0.306,0.092 -0.09,0.06 -0.158,0.146 -0.201,0.245 -0.04,0.101 -0.051,0.21 -0.03,0.316 0.021,0.104 0.073,0.203 0.148,0.279 0.078,0.075 0.175,0.127 0.281,0.148 0.106,0.021 0.217,0.01 0.316,-0.03 0.1,-0.043 0.187,-0.111 0.246,-0.201 0.06,-0.09 0.092,-0.196 0.092,-0.304 0,-0.07 -0.014,-0.143 -0.042,-0.208 -0.027,-0.067 -0.067,-0.127 -0.118,-0.176 -0.051,-0.051 -0.111,-0.092 -0.178,-0.118 -0.066,-0.029 -0.138,-0.043 -0.208,-0.043zm0 0.849c-0.06,0 -0.12,-0.018 -0.17,-0.052 -0.049,-0.033 -0.088,-0.081 -0.113,-0.135 -0.023,-0.055 -0.028,-0.117 -0.016,-0.175 0.011,-0.06 0.041,-0.113 0.083,-0.155 0.043,-0.043 0.097,-0.071 0.156,-0.083 0.058,-0.012 0.12,-0.005 0.176,0.018 0.055,0.023 0.102,0.061 0.136,0.111 0.033,0.049 0.051,0.107 0.051,0.167 0,0.081 -0.032,0.157 -0.088,0.215 -0.059,0.057 -0.136,0.089 -0.215,0.089zm0.395 1.271c-0.03,0 -0.06,0.009 -0.085,0.025 -0.025,0.018 -0.044,0.04 -0.057,0.069 -0.01,0.026 -0.014,0.058 -0.008,0.086 0.007,0.03 0.021,0.057 0.042,0.078 0.021,0.021 0.048,0.035 0.078,0.042 0.03,0.005 0.06,0.002 0.088,-0.009 0.026,-0.012 0.051,-0.031 0.067,-0.056 0.017,-0.025 0.026,-0.053 0.026,-0.083 0,-0.041 -0.016,-0.079 -0.044,-0.108 -0.028,-0.028 -0.067,-0.044 -0.107,-0.044l0 0 0 0zm-0.055 -0.945l-0.087 0.086c-0.01,0.011 -0.015,0.025 -0.017,0.039 -0.002,0.014 0.003,0.028 0.012,0.041 0.032,0.044 0.051,0.098 0.055,0.153 0.003,0.056 -0.009,0.111 -0.034,0.161 -0.026,0.049 -0.065,0.089 -0.113,0.118 -0.047,0.03 -0.102,0.044 -0.158,0.044 -0.055,0 -0.11,-0.016 -0.157,-0.044 -0.048,-0.03 -0.087,-0.071 -0.113,-0.12 -0.025,-0.05 -0.035,-0.106 -0.032,-0.161 0.004,-0.056 0.023,-0.109 0.056,-0.153 0.008,-0.013 0.011,-0.027 0.011,-0.041 -0.002,-0.014 -0.009,-0.028 -0.019,-0.037l-0.087 -0.086c-0.005,-0.007 -0.012,-0.011 -0.021,-0.014 -0.007,-0.004 -0.016,-0.006 -0.025,-0.004 -0.008,0 -0.015,0.002 -0.024,0.005 -0.007,0.006 -0.014,0.011 -0.02,0.018 -0.063,0.079 -0.102,0.176 -0.112,0.277 -0.011,0.102 0.008,0.205 0.052,0.296 0.046,0.092 0.115,0.17 0.202,0.223 0.088,0.054 0.188,0.082 0.291,0.082 0.102,0 0.202,-0.028 0.289,-0.082 0.086,-0.053 0.157,-0.131 0.201,-0.223 0.046,-0.091 0.063,-0.194 0.053,-0.296 -0.011,-0.101 -0.05,-0.198 -0.113,-0.277 -0.005,-0.007 -0.011,-0.012 -0.019,-0.016 -0.008,-0.005 -0.016,-0.007 -0.023,-0.007 -0.009,0 -0.018,0 -0.027,0.004 -0.007,0.003 -0.014,0.007 -0.021,0.014l0 0 0 0zm-0.462 -2.506l0.607 0c0.015,0 0.031,-0.007 0.044,-0.018 0.01,-0.011 0.017,-0.026 0.017,-0.042l0 -0.122c0,-0.016 -0.007,-0.032 -0.017,-0.042 -0.013,-0.013 -0.029,-0.018 -0.044,-0.018l-0.607 0c-0.085,0 -0.168,0.025 -0.238,0.072 -0.071,0.046 -0.125,0.113 -0.157,0.191 -0.032,0.077 -0.039,0.164 -0.021,0.247 0.015,0.083 0.058,0.157 0.118,0.217 -0.064,0.061 -0.106,0.141 -0.122,0.229 -0.016,0.088 -0.002,0.178 0.037,0.257 -0.012,0.004 -0.023,0.013 -0.032,0.023 -0.007,0.009 -0.01,0.023 -0.012,0.036l0 0.12c0,0.017 0.007,0.031 0.019,0.044 0.011,0.01 0.027,0.017 0.043,0.017l0.972 0c0.017,0 0.031,-0.007 0.044,-0.017 0.01,-0.013 0.017,-0.027 0.017,-0.044l0 -0.12c0,-0.016 -0.007,-0.032 -0.017,-0.043 -0.013,-0.012 -0.027,-0.017 -0.044,-0.017l-0.607 0c-0.05,0 -0.095,-0.02 -0.129,-0.055 -0.035,-0.034 -0.055,-0.079 -0.055,-0.129 0,-0.047 0.02,-0.093 0.055,-0.127 0.034,-0.035 0.079,-0.053 0.129,-0.053l0.607 0c0.017,0 0.031,-0.007 0.044,-0.019 0.01,-0.011 0.017,-0.027 0.017,-0.043l0 -0.119c0,-0.018 -0.007,-0.032 -0.017,-0.044 -0.013,-0.011 -0.027,-0.018 -0.044,-0.018l-0.607 0c-0.05,0 -0.095,-0.02 -0.129,-0.053 -0.035,-0.034 -0.055,-0.079 -0.055,-0.129 0,-0.047 0.02,-0.093 0.055,-0.129 0.034,-0.033 0.079,-0.053 0.129,-0.053l0 0 0 0.001z"/>
   <path class="fil2" d="M18.438 13.641c1.711,0 3.104,1.393 3.104,3.104 0,1.712 -1.393,3.106 -3.104,3.106 -1.713,0 -3.106,-1.393 -3.106,-3.106 0,-1.711 1.393,-3.104 3.106,-3.104zm0 -1.242c-2.4,0 -4.347,1.946 -4.347,4.346 0,2.402 1.947,4.347 4.347,4.347 2.4,0 4.346,-1.947 4.346,-4.347 0,-2.4 -1.946,-4.346 -4.346,-4.346z"/>
   <path class="fil3" d="M31.981 12.904c0,-0.138 -0.111,-0.249 -0.245,-0.249l-0.739 0c-0.111,0 -0.205,0.078 -0.235,0.18l0 3.871 -0.01 0c0,1.595 -1.282,2.893 -2.859,2.893 -1.577,0 -2.861,-1.298 -2.861,-2.893l0 -3.825c-0.01,-0.127 -0.114,-0.226 -0.241,-0.226l-0.739 0c-0.134,0 -0.246,0.111 -0.246,0.247l0 3.802 0 0.083 0.004 0c0.042,2.244 1.854,4.05 4.083,4.05 2.227,0 4.039,-1.806 4.083,-4.05l0.012 0m-0.007 -3.883l0 0 0 0z"/>
   <path class="fil4" d="M10.613 16.734c1.922,-0.292 3.405,-1.929 3.478,-3.927 -0.013,-0.076 -0.071,-0.138 -0.147,-0.152l-0.898 0c-0.107,0.025 -0.188,0.124 -0.188,0.24l0 -0.033c-0.106,1.495 -1.348,2.68 -2.859,2.68 -1.513,0 -2.753,-1.187 -2.857,-2.684 -0.016,-0.099 -0.09,-0.18 -0.187,-0.203l-0.914 0c-0.076,0.021 -0.132,0.09 -0.132,0.173 0.081,1.991 1.561,3.615 3.476,3.907l0 3.899c0.021,0.115 0.122,0.203 0.242,0.203l0.737 0c0.134,0 0.245,-0.111 0.245,-0.247m0.004 -3.856l0 0 0 0z"/>
  </g>
 </g>
</svg>
